<?xml version="1.0" standalone="no"?>
<!DOCTYPE svg PUBLIC "-//W3C//DTD SVG 1.1//EN" "http://www.w3.org/Graphics/SVG/1.1/DTD/svg11.dtd" >
<svg>
<metadata>
Created by FontForge 20090622 at Thu Oct 17 10:50:39 2019
 By deploy user
Copyright c 1992 Southern Software, Inc. All Rights Reserved
</metadata>
<defs>
<font id="CompleatSSiBoldItalic" horiz-adv-x="938" >
  <font-face 
    font-family="Compleat SSi"
    font-weight="700"
    font-style="italic"
    font-stretch="normal"
    units-per-em="2048"
    panose-1="2 2 8 0 0 0 0 0 0 0"
    ascent="1638"
    descent="-410"
    x-height="731"
    cap-height="1176"
    bbox="-422 -674 2097 1677"
    underline-thickness="50"
    underline-position="-75"
    slope="-12"
    unicode-range="U+0020-U+F002"
  />
<missing-glyph horiz-adv-x="1536" 
d="M256 0v1280h1024v-1280h-1024zM1247 33v1214h-958v-1214h958z" />
    <glyph glyph-name=".notdef" horiz-adv-x="1536" 
d="M256 0v1280h1024v-1280h-1024zM1247 33v1214h-958v-1214h958z" />
    <glyph glyph-name=".null" horiz-adv-x="0" 
 />
    <glyph glyph-name="nonmarkingreturn" horiz-adv-x="0" 
 />
    <glyph glyph-name="space" unicode=" " horiz-adv-x="461" 
 />
    <glyph glyph-name="exclam" unicode="!" horiz-adv-x="532" 
d="M231 311l91 754q15 126 44.5 179.5t84.5 53.5q25 0 43 -11.5t28 -34t10 -48.5q0 -65 -36 -176l-230 -717h-35zM217 231q36 0 65.5 -17t46.5 -47.5t17 -66.5q0 -54 -37.5 -92.5t-91.5 -38.5t-92.5 39.5t-38.5 91.5q0 55 38 93t93 38z" />
    <glyph glyph-name="quotedbl" unicode="&#x22;" horiz-adv-x="1137" 
d="M803 682l-53 299q-3 19 -8.5 49.5t-10 68t-4.5 54.5q0 119 96 119q43 0 74 -28.5t31 -78.5q0 -35 -27 -184l-55 -299h-43zM436 682l-53 299q-3 22 -9.5 58.5t-10 63t-3.5 50.5q0 119 97 119q43 0 73.5 -28.5t30.5 -78.5q0 -41 -26 -184l-56 -299h-43z" />
    <glyph glyph-name="numbersign" unicode="#" horiz-adv-x="1368" 
d="M477 987l84 404h127l-84 -404h416l84 404h127l-84 -404h188v-129h-215l-80 -373h295v-127h-321l-84 -403h-127l84 403h-416l-84 -403h-127l84 403h-188v127h215l80 373h-295v129h321zM993 858h-415l-80 -373h415z" />
    <glyph glyph-name="dollar" unicode="$" 
d="M655 1286l-24 -110q81 -13 122.5 -28.5t90.5 -49.5l-56 -267h-34q4 50 4 70q0 97 -35.5 150.5t-104.5 58.5l-92 -428q131 -157 178.5 -242t47.5 -168q0 -80 -43 -149t-120 -110.5t-171 -41.5q-27 0 -41 2l-33 -161h-72l35 161q-122 13 -215 86l58 267h34q-8 -47 -8 -90
q0 -172 143 -203l99 471q-82 104 -113 150t-46 93t-15 115q0 125 84 216t231 98l25 110h71zM469 748l78 360q-38 -6 -72.5 -33t-55 -70t-20.5 -90q0 -32 15.5 -67t54.5 -100zM477 442l-86 -409q78 6 132.5 63.5t54.5 134.5q0 48 -20 89.5t-81 121.5z" />
    <glyph glyph-name="percent" unicode="%" horiz-adv-x="1493" 
d="M489 1192q-43 0 -83 -53t-63.5 -138.5t-23.5 -177.5q0 -194 82 -194q47 0 87.5 52.5t65 140.5t24.5 190q0 180 -89 180zM528 1241q83 0 137 -65t54 -166q0 -105 -50 -204.5t-130.5 -162.5t-163.5 -63q-86 0 -142.5 65.5t-56.5 165.5q0 93 47 194.5t128.5 168.5t176.5 67z
M1417 1241l-1071 -1255h-125l1071 1255h125zM1270 645q53 0 97 -30t68.5 -83.5t24.5 -117.5q0 -105 -50 -204.5t-130.5 -162.5t-163.5 -63q-87 0 -142.5 65.5t-55.5 165.5q0 93 47.5 195t128.5 168.5t176 66.5zM1231 596q-43 0 -83 -53t-63.5 -138.5t-23.5 -177.5
q0 -97 20.5 -145.5t61.5 -48.5q46 0 86.5 52.5t65 140.5t24.5 190q0 180 -88 180z" />
    <glyph glyph-name="ampersand" unicode="&#x26;" horiz-adv-x="1473" 
d="M1626 -98l14 -35q-56 -43 -129 -68.5t-139 -25.5q-68 0 -129.5 23t-117 65.5t-104 92.5l-140.5 150q-114 -78 -192.5 -106.5t-168.5 -28.5q-95 0 -174.5 44.5t-125.5 120.5t-46 165q0 131 91 226.5t270 152.5q-54 115 -54 240q0 79 44 146t121.5 104.5t170.5 37.5
q78 0 137 -26.5t92 -74.5t33 -106q0 -101 -76 -170.5t-241 -119.5q16 -32 38 -70.5t72.5 -114.5l76.5 -112.5l79 -112.5q117 140 117 250q0 36 -14 64t-38.5 42.5t-60.5 14.5q-26 0 -61 -15l6 37q78 35 135 35q52 0 80.5 -34t28.5 -93q0 -74 -39.5 -160.5t-122.5 -181.5
q126 -177 237 -276t213 -99q45 0 117 19zM678 989q0 -118 61 -231q78 39 120 100t42 133q0 63 -30 103.5t-76 40.5q-49 0 -83 -42t-34 -104zM401 428q0 -74 35.5 -152.5t102.5 -131t153 -52.5q38 0 66.5 11t87.5 44q-171 220 -291 482q-154 -60 -154 -201z" />
    <glyph glyph-name="quoteright" unicode="&#x2019;" horiz-adv-x="532" 
d="M172 745l8 33q98 27 148.5 84t50.5 121q0 21 -32.5 42.5t-51.5 43t-19 74.5q0 56 37.5 92.5t94.5 36.5q60 0 94.5 -38.5t34.5 -109.5q0 -62 -25 -122.5t-72 -113.5t-116 -91.5t-152 -51.5z" />
    <glyph glyph-name="parenleft" unicode="(" horiz-adv-x="811" 
d="M856 1249h55q-140 -139 -247 -296.5t-177 -327.5t-103.5 -341.5t-33.5 -344.5q0 -81 8 -156.5t25 -150t40 -141.5t62 -165h-32q-84 120 -149.5 257t-102.5 279.5t-37 278.5q0 163 45 314t133.5 291t216 264.5t297.5 238.5z" />
    <glyph glyph-name="parenright" unicode=")" horiz-adv-x="811" 
d="M-47 -674h-55q181 176 306 387t190 445t65 479q0 114 -12.5 203t-42 185.5t-78.5 223.5h32q98 -146 163.5 -288.5t94.5 -272t29 -254.5q0 -181 -53.5 -344.5t-145.5 -297t-218.5 -251t-274.5 -215.5z" />
    <glyph glyph-name="asterisk" unicode="*" horiz-adv-x="1044" 
d="M887 825q-41 0 -100.5 7.5t-77.5 7.5q-30 0 -60 -9q26 -31 108 -79.5t126.5 -89.5t44.5 -103q0 -43 -30.5 -73.5t-76.5 -30.5q-73 0 -105 59t-53 163.5t-40 135.5q-26 -36 -52 -144t-54.5 -163t-94.5 -55q-46 0 -79.5 32t-33.5 76q0 60 49 105.5t133.5 96t102.5 70.5
q-27 7 -59 7q-33 0 -91.5 -4.5t-101.5 -4.5q-80 0 -118 36t-38 85q0 46 31.5 78.5t77.5 32.5q57 0 89 -23.5t101 -88t119 -85.5q-3 37 -15.5 69t-35 84.5t-32 85t-9.5 75.5q0 47 33.5 81.5t79.5 34.5t77 -34t31 -84q0 -47 -12 -85t-33.5 -82t-33.5 -75t-15 -70q49 27 113 84
t102 82t92 25q48 0 77.5 -29.5t29.5 -75.5q0 -58 -45.5 -91.5t-120.5 -33.5z" />
    <glyph glyph-name="plus" unicode="+" horiz-adv-x="1366" 
d="M203 614h481v486h127v-486h481v-129h-481v-485h-127v485h-481v129z" />
    <glyph glyph-name="comma" unicode="," horiz-adv-x="532" 
d="M-25 -293l9 33q99 27 148.5 84t49.5 121q0 21 -33.5 44t-51 43.5t-17.5 71.5q0 37 17 66t47 46t67 17q60 0 94.5 -38.5t34.5 -108.5q0 -82 -44.5 -163t-128 -140t-192.5 -76z" />
    <glyph glyph-name="hyphen" unicode="-" horiz-adv-x="748" 
d="M672 446l-31 -151h-565l30 151h566z" />
    <glyph glyph-name="period" unicode="." horiz-adv-x="532" 
d="M217 231q36 0 65.5 -17t46.5 -47.5t17 -66.5q0 -54 -37.5 -92.5t-91.5 -38.5t-92.5 39.5t-38.5 91.5q0 55 38 93t93 38z" />
    <glyph glyph-name="slash" unicode="/" horiz-adv-x="1087" 
d="M860 1223h137l-606 -1254h-137z" />
    <glyph glyph-name="zero" unicode="0" 
d="M92 428q0 129 46.5 272t128.5 267.5t183.5 199t211.5 74.5q91 0 162 -57t111 -159t40 -234q0 -148 -49 -297.5t-129.5 -266t-184.5 -187.5t-206 -71q-93 0 -165 59.5t-110.5 163.5t-38.5 236zM293 434q0 -395 164 -395q101 0 173.5 126.5t108 306.5t35.5 331
q0 179 -43.5 273.5t-126.5 94.5q-90 0 -161 -113.5t-110.5 -286t-39.5 -337.5z" />
    <glyph glyph-name="one" unicode="1" 
d="M377 254l153 725q5 30 5 33q0 63 -58 63q-39 0 -108 -35l8 41l358 156h37l-215 -1026q-10 -52 -10 -78q0 -56 34.5 -77t118.5 -21l-8 -35h-520l8 35q94 0 131 38t66 181z" />
    <glyph glyph-name="two" unicode="2" 
d="M793 162l-33 -162h-699l11 43q107 97 196 187t160 174t125 167q154 239 154 383q0 76 -50 127.5t-127 51.5q-57 0 -116.5 -35t-147.5 -119l-24 18q80 105 186 174.5t215 69.5q77 0 138 -30t93.5 -85.5t32.5 -132.5q0 -98 -60 -210t-199.5 -264.5t-366.5 -356.5h512z" />
    <glyph glyph-name="three" unicode="3" 
d="M319 1047l-22 22q45 50 107 90t127.5 61t130.5 21q104 0 168.5 -62.5t64.5 -164.5q0 -138 -104 -233.5t-250 -135.5v-4q149 -11 216.5 -92.5t67.5 -200.5q0 -102 -55.5 -190.5t-151.5 -138.5t-210 -50q-97 0 -197 42.5t-178 117.5l20 27q80 -50 128 -68t120 -18
q91 0 165.5 44t116.5 121t42 173q0 101 -63 150.5t-210 49.5l8 35q123 38 200.5 87t109.5 106t32 129q0 81 -48.5 125.5t-125.5 44.5q-81 0 -209 -88z" />
    <glyph glyph-name="four" unicode="4" 
d="M707 272l-64 -301h-186l63 301h-516l8 41l854 924h43l-180 -858h164l-23 -107h-163zM147 379h396l119 557l-5 4z" />
    <glyph glyph-name="five" unicode="5" 
d="M449 1028l-82 -387q59 10 106 10q107 0 183 -36.5t116.5 -106t40.5 -166.5q0 -109 -49.5 -194t-142.5 -132t-211 -47q-162 0 -324 117l20 29q151 -76 248 -76q75 0 134 37t91.5 104.5t32.5 151.5q0 250 -243 250q-45 0 -86 -9l135 637h514l-68 -182h-415z" />
    <glyph glyph-name="six" unicode="6" 
d="M123 371q0 152 67.5 308t200.5 290q90 92 173 145.5t180 82t231 40.5l-6 -35q-379 -68 -580 -557l4 -4q118 109 248 109q67 0 125 -39.5t91.5 -106.5t33.5 -149q0 -129 -59 -241t-159 -178.5t-216 -66.5q-74 0 -137.5 28.5t-106 80t-66.5 127t-24 166.5zM315 311
q0 -79 23 -141.5t64 -96.5t94 -34q96 0 155.5 93t59.5 247q0 128 -44 197t-126 69q-113 0 -169.5 -102.5t-56.5 -231.5z" />
    <glyph glyph-name="seven" unicode="7" 
d="M1020 1210l-6 -34l-508 -1201h-221l604 1035h-414q-189 0 -233 -146h-35l94 346h719z" />
    <glyph glyph-name="eight" unicode="8" 
d="M932 1018q0 -62 -32.5 -120.5t-95 -112t-157.5 -111.5q86 -122 119 -195.5t33 -161.5q0 -95 -49 -175.5t-135 -126.5t-189 -46q-84 0 -150 31t-102.5 88.5t-36.5 130.5q0 76 33 135.5t96 116t193 150.5q-129 175 -129 294q0 83 50.5 159t134.5 121.5t177 45.5
q106 0 173 -62t67 -161zM475 1014q0 -45 16.5 -82t59.5 -104t61 -103q87 63 127.5 131.5t40.5 147.5q0 72 -43.5 119.5t-109.5 47.5q-40 0 -75.5 -21t-56 -57t-20.5 -79zM289 227q0 -77 53.5 -132.5t128.5 -55.5q72 0 120 54t48 138q0 48 -21.5 108.5t-58 123t-70.5 106.5
q-98 -80 -149 -165t-51 -177z" />
    <glyph glyph-name="nine" unicode="9" 
d="M121 -31l6 37q205 29 351 188.5t229 370.5l-5 4q-114 -108 -245 -108q-105 0 -177.5 85.5t-72.5 209.5q0 129 59 241.5t158 178t215 65.5q102 0 177 -49t116 -139.5t41 -212.5q0 -163 -73 -324t-191 -276q-131 -128 -272.5 -197.5t-315.5 -73.5zM385 831
q0 -126 44.5 -196t129.5 -70q108 0 172 115q51 99 51 219q0 123 -48 197.5t-130 74.5q-71 0 -121 -44.5t-74 -123.5t-24 -172z" />
    <glyph glyph-name="colon" unicode=":" horiz-adv-x="532" 
d="M315 721q36 0 65.5 -17t46.5 -46.5t17 -65.5q0 -54 -37.5 -93.5t-91.5 -39.5q-53 0 -92 40t-39 93q0 54 38.5 91.5t92.5 37.5zM217 231q36 0 65.5 -17t46.5 -47.5t17 -66.5q0 -54 -37.5 -92.5t-91.5 -38.5t-92.5 39.5t-38.5 91.5q0 55 38 93t93 38z" />
    <glyph glyph-name="semicolon" unicode=";" horiz-adv-x="532" 
d="M-25 -293l9 33q99 27 148.5 84t49.5 121q0 21 -33.5 44t-51 43.5t-17.5 71.5q0 37 17 66t47 46t67 17q60 0 94.5 -38.5t34.5 -108.5q0 -82 -44.5 -163t-128 -140t-192.5 -76zM315 721q36 0 65.5 -17t46.5 -46.5t17 -65.5q0 -54 -37.5 -93.5t-91.5 -39.5q-53 0 -92 40
t-39 93q0 54 38.5 91.5t92.5 37.5z" />
    <glyph glyph-name="less" unicode="&#x3c;" horiz-adv-x="1366" 
d="M205 549v119l1085 460v-141l-909 -379l909 -379v-143z" />
    <glyph glyph-name="equal" unicode="=" horiz-adv-x="1366" 
d="M203 850h1089v-129h-1089v129zM203 373h1089v-129h-1089v129z" />
    <glyph glyph-name="greater" unicode="&#x3e;" horiz-adv-x="1366" 
d="M1292 549l-1085 -463v143l909 379l-909 379v141l1085 -460v-119z" />
    <glyph glyph-name="question" unicode="?" horiz-adv-x="748" 
d="M291 315h-39q8 81 32 135.5t57 89.5t87 78.5t84 73.5q65 66 90 120t25 110q0 41 -22.5 76.5t-60.5 56t-81 20.5q-58 0 -103 -28t-108 -103l-33 12q48 125 135.5 196t192.5 71q103 0 171 -75t68 -192q0 -154 -129 -286q-40 -40 -133.5 -103.5t-148 -116t-84.5 -135.5z
M215 231q36 0 65.5 -17t46.5 -47.5t17 -66.5q0 -54 -37.5 -92.5t-91.5 -38.5t-92.5 39.5t-38.5 91.5q0 55 38 93t93 38z" />
    <glyph glyph-name="at" unicode="@" horiz-adv-x="1704" 
d="M1403 967l-184 -639q-27 -98 -27 -148q0 -32 21 -54t53 -22q74 0 149.5 52t139 146t100.5 212.5t37 249.5q0 178 -83.5 320.5t-232.5 222t-334 79.5q-255 0 -451.5 -139.5t-301.5 -362.5t-105 -462q0 -233 100 -418t279 -288t404 -103q133 0 255.5 37t225.5 108.5
t184.5 175.5t139.5 240h57q-44 -145 -129.5 -260t-203 -196t-252 -122.5t-281.5 -41.5q-247 0 -446.5 116t-313 321t-113.5 458q0 272 126 499t344 358.5t476 131.5q160 0 291.5 -50t227 -143t146 -219.5t50.5 -280.5q0 -123 -37 -249.5t-107.5 -231.5t-174.5 -169t-232 -64
q-153 0 -153 139q0 53 16 145l-4 4q-106 -144 -205.5 -216t-183.5 -72q-52 0 -93.5 31.5t-65.5 85t-24 116.5q0 116 54 243.5t138.5 232.5t181 169t177.5 64q71 0 116 -36.5t56 -102.5h4l31 112zM647 297q0 -60 35 -101.5t82 -41.5q85 0 180 96q123 124 176.5 267t53.5 269
q0 62 -33.5 101t-87.5 39q-68 0 -139.5 -67.5t-133 -174.5t-97.5 -213.5t-36 -173.5z" />
    <glyph glyph-name="A" unicode="A" horiz-adv-x="1194" 
d="M743 221v180h-309l-149 -227q-29 -46 -29 -74q0 -51 100 -65l-6 -35h-358l6 35q59 7 97.5 32t67 62t87.5 125l631 952h98v-999q0 -63 9.5 -100t40 -54t91.5 -18l-6 -35h-518l6 35q57 6 87.5 23.5t42 55t11.5 107.5zM743 483v391h-4l-252 -391h256z" />
    <glyph glyph-name="B" unicode="B" horiz-adv-x="1217" 
d="M246 231l178 848q-98 -22 -182 -94l-23 27q106 97 231.5 145.5t268.5 48.5q122 0 211.5 -34.5t137.5 -99.5t48 -150q0 -118 -76.5 -193t-234.5 -108v-5q105 -12 182 -52t117.5 -101.5t40.5 -138.5q0 -82 -48.5 -156.5t-139.5 -121t-209 -46.5h-705l8 35q69 14 104.5 32.5
t55 55.5t35.5 108zM666 1106l-95 -451q29 -4 70 -4q103 0 176.5 62.5t73.5 185.5q0 98 -57 152.5t-168 54.5zM555 584l-82 -396q0 -56 33.5 -89t95.5 -33q85 0 153.5 36.5t107 100.5t38.5 143q0 101 -83 170.5t-204 69.5q-32 0 -59 -2z" />
    <glyph glyph-name="C" unicode="C" horiz-adv-x="1087" 
d="M1110 1223l-41 -326h-29q-15 114 -77 176t-152 62q-86 0 -161 -50.5t-134.5 -142t-92 -211t-32.5 -252.5q0 -181 83.5 -292t219.5 -111q90 0 174 55.5t144 142.5l26 -16q-65 -111 -133.5 -174t-143 -89t-169.5 -26q-103 0 -186 34.5t-140.5 100.5t-88 161.5t-30.5 209.5
q0 165 54.5 303.5t145 233t203.5 144.5t226 50q73 0 137 -12q58 -14 93 -14q51 0 73 43h31z" />
    <glyph glyph-name="D" unicode="D" horiz-adv-x="1473" 
d="M276 197l189 886q-121 -25 -258 -135l-23 25q66 63 152.5 116.5t197.5 85t242 31.5q161 0 290.5 -47.5t219 -130.5t137 -192.5t47.5 -231.5q0 -244 -167 -411q-99 -102 -250.5 -147.5t-450.5 -45.5h-528l8 35q89 11 133 45.5t61 116.5zM702 1108l-182 -862
q-12 -52 -12 -84q0 -54 40 -73t150 -19q172 0 292 72t178.5 189.5t58.5 252.5q0 109 -39 205t-109.5 168t-163.5 111.5t-202 39.5h-11z" />
    <glyph glyph-name="E" unicode="E" horiz-adv-x="1130" 
d="M961 745l-62 -292h-35q-6 63 -43 90.5t-110 27.5h-174l-72 -342q-12 -64 -12 -84q0 -44 32 -60.5t119 -16.5h168q72 0 129 44t127 152h33l-105 -264h-911l8 35q81 15 118.5 56t57.5 138l160 760q6 25 6 43q0 46 -30.5 71.5t-96.5 37.5l6 35h816l-46 -211h-38
q-9 85 -32.5 113t-92.5 28h-232l-98 -467h160q92 0 139 23.5t76 82.5h35z" />
    <glyph glyph-name="F" unicode="F" horiz-adv-x="1067" 
d="M563 571l-78 -372q-6 -31 -6 -54q0 -54 34.5 -80.5t109.5 -29.5l-7 -35h-565l6 35q92 6 134 45t63 137l158 739q8 33 8 68q0 49 -29.5 77.5t-99.5 39.5l6 35h817l-33 -211h-37q-10 77 -41.5 109t-91.5 32h-235l-98 -467h149q64 0 99.5 7.5t57 31t42.5 70.5h32l-61 -293
h-33q-4 61 -40 88.5t-111 27.5h-150z" />
    <glyph glyph-name="G" unicode="G" horiz-adv-x="1343" 
d="M1153 272l-49 -237q-229 -66 -424 -66q-121 0 -219 27.5t-169.5 87t-109 152t-37.5 221.5q0 198 94.5 371t254.5 275.5t342 102.5q72 0 172 -12q102 -12 114 -12q27 0 43.5 11t38.5 42h35l-68 -326h-34q0 75 -33.5 126t-86.5 75.5t-116 24.5q-145 0 -262 -86.5
t-183.5 -240.5t-66.5 -347q0 -97 22.5 -177.5t64 -134t104.5 -82t139 -28.5q80 0 155 27l52 241q4 34 4 41q0 99 -133 105l8 34h534l-6 -34q-83 -9 -121 -47.5t-59 -133.5z" />
    <glyph glyph-name="H" unicode="H" horiz-adv-x="1579" 
d="M1145 582h-594l-86 -408q-4 -24 -4 -33q0 -96 133 -106l-6 -35h-545l6 35q100 23 133.5 54.5t48.5 107.5l166 761q6 28 6 54q0 110 -143 129l6 35h557l-6 -35q-96 -21 -133 -63.5t-55 -125.5l-62 -284h594l58 266q12 52 12 88q0 49 -31.5 76.5t-105.5 42.5l6 35h551
l-6 -35q-70 -17 -102.5 -35t-51.5 -53t-33 -99l-162 -768q-4 -14 -4 -41q0 -49 33.5 -75.5t99.5 -34.5l-6 -35h-545l7 35q73 13 108 37t51 59t29 98z" />
    <glyph glyph-name="I" unicode="I" horiz-adv-x="748" 
d="M631 946l-162 -772q-4 -24 -4 -33q0 -97 135 -106l-8 -35h-547l8 35q97 22 134 63t55 125l153 723q8 39 8 74q0 54 -29 81t-98 40l5 35h524l-4 -35q-61 -16 -91 -35t-47.5 -55t-31.5 -105z" />
    <glyph glyph-name="J" unicode="J" horiz-adv-x="854" 
d="M279 -70l215 1014q10 52 10 82q0 50 -30.5 76.5t-108.5 38.5l4 35h553l-4 -35q-64 -12 -98.5 -31.5t-54.5 -57t-36 -108.5l-205 -967q-94 -442 -483 -442q-70 0 -124.5 20t-113.5 60l17 29q79 -39 143 -39q103 0 190.5 72.5t125.5 252.5z" />
    <glyph glyph-name="K" unicode="K" horiz-adv-x="1366" 
d="M743 709l289 -457q80 -124 144.5 -169t140.5 -48l-8 -35h-543l8 35q80 6 80 55q0 42 -45 109l-262 403l-84 -405q-6 -28 -6 -52q0 -51 29.5 -77.5t91.5 -32.5l-9 -35h-501l8 35q78 19 105.5 52.5t45.5 123.5l156 727q10 52 10 80q0 53 -30.5 81.5t-104.5 41.5l6 35h541
l-6 -35q-85 -18 -121 -58t-53 -116l-70 -326l4 -4l354 321q84 75 84 123q0 41 -63 60l6 35h375l-6 -35q-105 -25 -213 -119z" />
    <glyph glyph-name="L" unicode="L" horiz-adv-x="1067" 
d="M1067 262l-104 -262h-924l8 35q90 15 127.5 53t58.5 137l152 711q12 52 12 88q0 49 -31.5 76t-111.5 41l6 35h567l-6 -35q-81 -23 -114.5 -42t-51.5 -53.5t-34 -109.5l-148 -680q-12 -58 -12 -94q0 -53 30 -73.5t105 -20.5h139q84 0 150 43.5t147 150.5h35z" />
    <glyph glyph-name="M" unicode="M" horiz-adv-x="1556" 
d="M1452 946l-158 -741q-8 -46 -8 -62q0 -47 31 -73t108 -35l-6 -35h-553l6 35q102 15 137 56.5t54 133.5l145 690l-4 5l-596 -920h-45l6 915l-4 5l-301 -715q-24 -57 -24 -88q0 -71 112 -82l-6 -35h-334l6 35q65 24 99.5 64t77.5 132l380 834q-42 42 -80 59t-106 17l4 35
h418l-2 -748l4 -4l481 752h334l-4 -35q-62 -15 -93 -34.5t-47 -53.5t-32 -107z" />
    <glyph glyph-name="N" unicode="N" horiz-adv-x="1409" 
d="M1346 942l-183 -960h-53l-614 940l-127 -693q-7 -38 -7 -63q0 -57 31.5 -88.5t104.5 -42.5l-6 -35h-371l6 35q74 12 110 54t56 140l164 777q-58 81 -100 104.5t-140 30.5l6 35h393l547 -834l111 608q8 54 8 72q0 119 -121 119l6 35h357l-6 -35q-70 -11 -113 -60.5
t-59 -138.5z" />
    <glyph glyph-name="O" unicode="O" horiz-adv-x="1366" 
d="M1366 733q0 -144 -59.5 -282.5t-163.5 -247t-237.5 -171.5t-272.5 -63q-92 0 -176.5 27.5t-154.5 86t-111 148t-41 207.5q0 136 56 273.5t159 250t239 178.5t293 66q122 0 229.5 -53.5t173.5 -161t66 -258.5zM1122 770q0 108 -34.5 190.5t-97.5 128.5t-144 46
q-133 0 -237.5 -114t-160 -285.5t-55.5 -327.5q0 -109 35 -193t98.5 -130t145.5 -46q103 0 187 68t142.5 178t89.5 238.5t31 246.5z" />
    <glyph glyph-name="P" unicode="P" horiz-adv-x="1174" 
d="M575 555l-83 -393q0 -118 145 -127l-8 -35h-555l6 35q65 14 100 33t53 52.5t29 88.5l184 881q-104 -36 -215 -109l-18 27q88 66 174 111.5t171 66t171 20.5q129 0 231.5 -41t158 -116.5t55.5 -171.5q0 -98 -53 -180.5t-146 -130.5t-205 -48q-94 0 -195 37zM690 1108
l-104 -504q52 -16 90 -16q75 0 132.5 34.5t89.5 98.5t32 149q0 111 -65.5 174.5t-174.5 63.5z" />
    <glyph glyph-name="Q" unicode="Q" horiz-adv-x="1366" 
d="M1903 -215l24 -29q-90 -114 -207.5 -178.5t-234.5 -64.5q-74 0 -164 30t-182 86t-194.5 141.5t-215.5 206.5q-62 -8 -96 -8q-92 0 -178 29t-155.5 87.5t-109.5 147t-40 205.5q0 147 59.5 285.5t165 249t238 172t272.5 61.5q107 0 196.5 -33.5t152 -95.5t97.5 -151
t35 -193q0 -100 -29 -198t-83.5 -186.5t-130 -163t-171.5 -130.5q61 -84 132 -151.5t153 -118.5t169.5 -79t174.5 -28q75 0 134 21.5t188 85.5zM1122 770q0 108 -34.5 190.5t-97.5 128.5t-144 46q-101 0 -184.5 -65.5t-143.5 -175t-92.5 -237t-32.5 -249.5q0 -109 35 -193
t98.5 -130t145.5 -46q138 0 240 113.5t156 284.5t54 333z" />
    <glyph glyph-name="R" unicode="R" horiz-adv-x="1280" 
d="M537 586l-80 -375q-8 -50 -8 -66q0 -48 28 -75.5t96 -34.5l-6 -35h-528l8 35q68 17 99.5 38t46.5 52.5t30 103.5l183 867q-61 -19 -112 -46.5t-106 -68.5l-26 23q65 62 149 108t178 70t195 24q130 0 229 -37t152 -106.5t53 -159.5q0 -72 -37.5 -139t-110.5 -108.5
t-177 -41.5v-4q99 -18 146.5 -44.5t81.5 -89t83 -206.5q27 -78 47 -119t51 -68t86 -48l-6 -35h-434l6 37q68 19 68 69q0 13 -7 27l-92 262q-32 96 -95 143.5t-157 47.5h-34zM647 1108l-98 -457q39 -10 86 -10q82 0 135.5 38.5t78.5 93.5t25 108q0 98 -63.5 162.5
t-163.5 64.5z" />
    <glyph glyph-name="S" unicode="S" horiz-adv-x="897" 
d="M887 1206l-51 -288h-41q-2 70 -23 118.5t-60.5 73.5t-93.5 25q-78 0 -133 -59t-55 -144q0 -65 41.5 -125.5t138 -171.5t146 -193.5t49.5 -175.5q0 -88 -47 -156t-134.5 -104.5t-199.5 -36.5q-85 0 -170 17q-24 3 -43 6t-36.5 5.5t-24.5 2.5q-40 0 -60 -31h-33l60 289h35
q17 -106 75 -162.5t150 -56.5q83 0 137.5 48t54.5 124q0 74 -41.5 136t-131 164t-134.5 177.5t-45 165.5q0 96 49.5 177t133.5 128t186 47q34 0 125 -14q78 -16 82 -16q39 0 61 30h33z" />
    <glyph glyph-name="T" unicode="T" horiz-adv-x="1174" 
d="M872 1106l-194 -924q-4 -24 -4 -37q0 -101 137 -110l-8 -35h-543l8 35q68 13 104 35t52 58.5t29 98.5l184 879h-143q-93 0 -156 -39.5t-86 -110.5h-35l51 250h35q17 -17 37 -24q21 -6 53 -6h731q48 0 69 6t36 24h31l-54 -250h-35q-9 81 -42.5 115.5t-100.5 34.5h-156z
" />
    <glyph glyph-name="U" unicode="U" horiz-adv-x="1579" 
d="M1436 940l-101 -475q-28 -135 -105 -248.5t-199.5 -180.5t-274.5 -67q-154 0 -259.5 62t-156.5 160t-51 198q0 91 22 201l84 383q6 24 6 47q0 109 -143 121l6 35h553l-6 -35q-97 -21 -131.5 -58t-56.5 -143l-109 -508q-18 -79 -18 -151q0 -107 71 -174.5t183 -67.5
q121 0 209.5 88.5t123.5 255.5l125 592q9 50 9 57q0 45 -33.5 70t-118.5 39l6 35h584l-6 -35q-75 -14 -114.5 -34t-61.5 -58t-37 -109z" />
    <glyph glyph-name="V" unicode="V" horiz-adv-x="1194" 
d="M1178 995l-725 -1024h-31l6 998q0 89 -22.5 124.5t-88.5 47.5l7 35h458l-4 -35q-63 -9 -88.5 -47.5t-25.5 -124.5v-592h4l389 569q47 69 47 119q0 35 -23.5 55.5t-70.5 20.5l6 35h323l-6 -35q-39 -13 -70 -42.5t-85 -103.5z" />
    <glyph glyph-name="W" unicode="W" horiz-adv-x="1835" 
d="M1939 1176l-8 -35q-109 -56 -200 -193l-637 -977h-39l14 947l-4 4l-621 -951h-34l18 992q0 94 -22.5 132.5t-81.5 45.5l6 35h463l-7 -35q-49 -5 -74.5 -23t-36.5 -59t-13 -123l-9 -524l4 -4l412 647q-5 42 -29.5 60t-74.5 26l6 35h452l-6 -35q-69 -13 -87.5 -62
t-20.5 -139l-15 -528l4 -4l349 542q43 64 43 109t-23.5 60t-60.5 22l8 35h325z" />
    <glyph glyph-name="X" unicode="X" horiz-adv-x="1323" 
d="M834 672l182 -455q31 -77 54.5 -113t54.5 -51t83 -18l-6 -35h-510l6 35q95 5 95 88q0 47 -31 121l-94 235l-291 -313q-49 -52 -49 -84q0 -41 102 -47l-6 -35h-399l6 35q83 13 143.5 52.5t122.5 102.5l342 367l-186 465q-20 50 -58.5 78t-105.5 41l6 35h520l-6 -35
q-45 0 -72.5 -23.5t-27.5 -68.5q0 -30 14 -68l86 -233l219 225q59 59 59 104q0 48 -73 64l6 35h375l-6 -35q-70 -18 -120.5 -43t-94.5 -70z" />
    <glyph glyph-name="Y" unicode="Y" horiz-adv-x="1194" 
d="M811 625l-88 -416q-8 -46 -8 -64q0 -50 32 -77t105 -33l-8 -35h-580l8 35q109 17 153 55t64 133l78 371l-153 334q-46 102 -89.5 149t-111.5 64l6 35h504l-6 -35q-84 -3 -84 -82q0 -57 49 -168l94 -203l211 266q57 73 57 117q0 59 -98 70l6 35h369l-6 -35
q-114 -29 -242 -187z" />
    <glyph glyph-name="Z" unicode="Z" horiz-adv-x="1217" 
d="M1104 264l-55 -264h-973l8 35l860 1071h-371q-55 0 -98 -18.5t-76 -61.5t-59 -111h-35l55 261h908l-6 -27l-861 -1081h428q163 0 240 196h35z" />
    <glyph glyph-name="bracketleft" unicode="[" horiz-adv-x="811" 
d="M846 1223l-6 -35h-84q-78 0 -109 -27q-25 -22 -43 -104l-315 -1508q-8 -41 -8 -67q0 -48 25.5 -67t88.5 -19h66l-8 -35h-406l393 1862h406z" />
    <glyph glyph-name="backslash" unicode="\" horiz-adv-x="1087" 
d="M371 1223l606 -1254h-137l-607 1254h138z" />
    <glyph glyph-name="bracketright" unicode="]" horiz-adv-x="811" 
d="M-35 -639l6 35h84q77 0 109 26q26 24 43 105l315 1507q8 41 8 66q0 50 -24.5 69t-89.5 19h-66l8 35h406l-393 -1862h-406z" />
    <glyph glyph-name="asciicircum" unicode="^" horiz-adv-x="1167" 
d="M203 674l405 727h84l406 -727h-152l-297 518l-295 -518h-151z" />
    <glyph glyph-name="underscore" unicode="_" horiz-adv-x="1024" 
d="M1042 -258h-1058v102h1058v-102z" />
    <glyph glyph-name="quoteleft" unicode="&#x2018;" horiz-adv-x="532" 
d="M645 1272l-8 -33q-96 -25 -147.5 -83.5t-51.5 -121.5q0 -21 32.5 -42.5t51.5 -43t19 -74.5q0 -55 -38 -92t-93 -37q-59 0 -94 39.5t-35 106.5q0 83 44.5 164.5t127.5 140.5t192 76z" />
    <glyph glyph-name="a" unicode="a" horiz-adv-x="1024" 
d="M928 762l-105 -553q-8 -50 -8 -64q0 -51 27.5 -73t89.5 -25l-6 -29l-344 -47l30 148l-4 4q-131 -154 -291 -154q-101 0 -170 71.5t-69 178.5q0 92 42.5 186t125.5 170q121 111 261 149t316 38h105zM633 223l96 457h-100q-99 0 -168 -46.5t-115 -127.5
q-35 -62 -53.5 -133.5t-18.5 -118.5q0 -70 43.5 -122t104.5 -52q51 0 98 32.5t113 110.5z" />
    <glyph glyph-name="b" unicode="b" horiz-adv-x="1004" 
d="M559 1223l-117 -551q157 90 263 90q71 0 129.5 -38t91 -105.5t32.5 -149.5q0 -116 -76 -233t-215.5 -192t-318.5 -75h-244l213 1014q9 35 9 68q0 50 -26.5 73.5t-86.5 24.5l6 27l320 47h20zM428 600l-117 -559q52 -6 90 -6q82 0 152 39.5t119 105.5q41 55 63.5 127.5
t22.5 136.5q0 58 -22.5 104.5t-63 73.5t-92.5 27q-35 0 -67.5 -10.5t-84.5 -38.5z" />
    <glyph glyph-name="c" unicode="c" horiz-adv-x="725" 
d="M705 762l-27 -234h-35q-12 166 -117 166q-78 0 -133.5 -72t-83.5 -173t-28 -185q0 -72 44.5 -125t108.5 -53q44 0 86 19t113 71l22 -24q-86 -95 -161 -139t-152 -44q-110 0 -184 80.5t-74 202.5q0 116 40.5 211.5t103.5 161t136.5 101.5t133.5 36q42 0 69 -6
q12 -2 22.5 -3.5t11.5 -2t9 -0.5q36 0 66 12h29z" />
    <glyph glyph-name="d" unicode="d" horiz-adv-x="1004" 
d="M1026 1223l-215 -1018q-6 -25 -6 -47q0 -100 119 -103l-9 -35l-321 -49h-23l23 107q-146 -109 -270 -109q-102 0 -173 81t-71 198q0 89 41.5 179t123.5 165t206.5 122t285.5 48l45 209q13 51 13 84q0 54 -32 74t-108 20l7 27l344 47h20zM610 158l111 526q-55 10 -76 10
q-102 0 -186.5 -52.5t-133.5 -146.5t-49 -206q0 -92 44.5 -150.5t113.5 -58.5q42 0 83 17.5t93 60.5z" />
    <glyph glyph-name="e" unicode="e" horiz-adv-x="831" 
d="M729 195l27 -23q-44 -62 -103.5 -108t-125.5 -70.5t-130 -24.5q-86 0 -156 38.5t-110.5 107t-40.5 151.5q0 130 73.5 244.5t197.5 183t260 68.5q76 0 125 -38t49 -95q0 -79 -80.5 -144.5t-200 -105t-227.5 -47.5q-4 -30 -4 -45q0 -60 29.5 -107.5t75 -73.5t97.5 -26
q123 0 244 115zM606 604q0 37 -21.5 59.5t-56.5 22.5q-52 0 -103 -41t-86.5 -114t-45.5 -154q86 7 159 43.5t113.5 86t40.5 97.5z" />
    <glyph glyph-name="f" unicode="f" horiz-adv-x="641" 
d="M631 731l-15 -72h-143l-115 -643q-60 -330 -192 -462q-62 -64 -154.5 -98t-208.5 -34q-140 0 -225 31l70 236h33q11 -91 58 -145t116 -54q84 0 163.5 74t108.5 233l156 862h-174l14 72h174q26 192 89.5 313t153 174.5t197.5 53.5q74 0 152 -23l24 21h35l-78 -248h-28
q-6 197 -123 197q-59 0 -106 -57.5t-70 -168.5l-56 -262h144z" />
    <glyph glyph-name="g" unicode="g" horiz-adv-x="1004" 
d="M938 762l-229 -1098q-17 -80 -82 -145q-45 -49 -145.5 -73t-182.5 -24q-91 0 -171.5 26.5t-128.5 79t-48 126.5q0 92 78 170q41 41 79.5 65.5t96 52.5t106.5 56v4q-85 5 -131.5 73t-46.5 146q0 80 36 175t118 177q193 191 585 191q22 0 36 -0.5t30 -1.5zM729 668l-80 6
q-88 0 -163 -53.5t-118.5 -145.5t-43.5 -201q0 -79 40 -133.5t97 -54.5q34 0 70.5 19t93.5 65zM496 -440l112 534q-48 -33 -151.5 -79.5t-150.5 -71t-101 -78.5q-64 -64 -64 -150q0 -58 30.5 -110t80 -83.5t102.5 -31.5q45 0 90.5 20t51.5 50z" />
    <glyph glyph-name="h" unicode="h" horiz-adv-x="1044" 
d="M145 168l177 836q6 24 6 45q0 89 -113 92l6 35l309 47h31l-125 -590l4 -4q127 133 260 133q107 0 168.5 -64.5t61.5 -160.5q0 -22 -8 -68l-62 -287q-6 -30 -6 -55q0 -41 20 -63.5t66 -28.5l-6 -35h-408l9 35q60 9 87.5 47t47.5 135l55 260q6 25 6 49q0 59 -34.5 91
t-88.5 32q-50 0 -93 -29.5t-101 -99.5l-76 -356q-4 -24 -4 -37q0 -78 86 -92l-8 -35h-389l8 35q56 12 78 38.5t36 94.5z" />
    <glyph glyph-name="i" unicode="i" horiz-adv-x="575" 
d="M170 174l70 340q8 39 8 74q-2 49 -30 69t-99 21l8 35l334 49h22l-121 -580q-6 -30 -6 -51q0 -45 26 -66.5t85 -29.5l-6 -35h-447l9 35q70 12 102 42t45 97zM285 1106q0 48 33.5 82.5t80.5 34.5q31 0 58 -16t42 -43t15 -58q0 -48 -33.5 -81.5t-81.5 -33.5q-46 0 -80 34
t-34 81z" />
    <glyph glyph-name="j" unicode="j" horiz-adv-x="555" 
d="M86 -231l158 753q8 36 8 70q0 45 -28.5 66t-98.5 24l8 45l334 35h18l-211 -1002q-38 -184 -121 -261t-190 -77q-113 0 -192 66l8 31q54 -17 92 -17q80 0 133 62t82 205zM297 1106q0 48 33.5 82.5t81.5 34.5q47 0 80.5 -34.5t33.5 -82.5q0 -47 -34 -81t-80 -34
q-47 0 -81 34t-34 81z" />
    <glyph glyph-name="k" unicode="k" 
d="M156 217l161 758q9 31 9 65q0 101 -111 101l4 35l324 47h18l-125 -594q84 63 160 98t133 35q44 0 79 -16t54 -43.5t19 -61.5q0 -75 -78 -138t-217 -108l174 -243q41 -58 72 -82t77 -35l-8 -35h-264l-258 358l-39 -190q-4 -28 -4 -39q0 -39 21.5 -62t70.5 -32l-8 -35h-397
l8 35q42 14 62.5 30.5t33 48.5t29.5 103zM424 571l-39 -186q154 32 226.5 79t72.5 116q0 32 -19.5 50.5t-56.5 18.5q-84 0 -184 -78z" />
    <glyph glyph-name="l" unicode="l" horiz-adv-x="575" 
d="M586 1223l-219 -1041q-7 -28 -7 -53q0 -47 26.5 -69t88.5 -25l-8 -35h-449l7 35q57 6 87 25t44.5 55.5t29.5 113.5l150 709q12 55 12 96q0 55 -28.5 81t-102.5 26l6 35l344 47h19z" />
    <glyph glyph-name="m" unicode="m" horiz-adv-x="1473" 
d="M154 215l63 307q6 34 6 62q0 52 -30.5 73t-94.5 21l6 35l340 49h15l-27 -123l4 -4q67 70 126 98.5t134 28.5q164 0 197 -127q76 65 143 96t138 31q81 0 136.5 -42.5t55.5 -127.5q0 -27 -6 -57l-76 -369q-4 -28 -4 -41q0 -85 92 -90l-6 -35h-408l7 35q49 14 73.5 31.5
t39 49.5t28.5 99l57 266q6 31 6 58q0 54 -25 84t-77 30q-85 0 -176 -98l-82 -389q-4 -24 -4 -35q0 -81 86 -96l-6 -35h-396l7 35q68 15 91.5 54t41.5 126l57 266q8 33 8 68q0 104 -84 104q-46 0 -92.5 -29t-109.5 -100l-74 -358q-4 -16 -4 -43q2 -24 9 -39.5t26 -28.5
t51 -20l-6 -35h-390l7 35q57 14 83.5 55t43.5 125z" />
    <glyph glyph-name="n" unicode="n" horiz-adv-x="1044" 
d="M154 207l65 315q8 36 8 68q-2 47 -30.5 66t-102.5 20l8 35l338 51h21l-29 -131l4 -4q119 135 262 135q61 0 112.5 -26.5t82.5 -75t31 -111.5q0 -28 -6 -60l-62 -315q-4 -24 -4 -39q0 -84 80 -100l-6 -35h-385l6 35q59 13 83.5 52.5t41.5 119.5l49 235q10 48 10 80
q0 127 -123 127q-103 0 -198 -123l-74 -360q-4 -24 -4 -35q0 -40 23 -63t73 -33l-6 -35h-402l7 35q65 16 87.5 53.5t39.5 118.5z" />
    <glyph glyph-name="o" unicode="o" horiz-adv-x="874" 
d="M51 248q0 113 67 233.5t187.5 200.5t269.5 80q70 0 133 -36.5t99.5 -99.5t36.5 -134q0 -92 -42.5 -187.5t-115 -171t-163.5 -120t-181 -44.5q-127 0 -209 79t-82 200zM248 221q0 -80 35.5 -133t91.5 -53q90 0 152 79t91 190.5t29 213.5q0 81 -36 128.5t-97 47.5
q-120 0 -193 -152.5t-73 -320.5z" />
    <glyph glyph-name="p" unicode="p" horiz-adv-x="1004" 
d="M-6 -578l231 1098q6 31 6 53q0 105 -112 105l6 35l340 49l-21 -98q133 98 250 98q120 0 194.5 -77t74.5 -200q0 -127 -77.5 -246.5t-229.5 -194.5t-357 -75l-68 -321q-6 -31 -6 -51q0 -48 28 -70t89 -25l-8 -37l-307 -43h-33zM430 594l-117 -557q29 -4 72 -4
q134 0 219.5 70t123.5 165.5t38 165.5q0 104 -48 164.5t-128 60.5q-68 0 -160 -65z" />
    <glyph glyph-name="q" unicode="q" horiz-adv-x="981" 
d="M940 760l-227 -1077q-11 -57 -11 -80q0 -45 25.5 -65.5t83.5 -26.5l-8 -46l-336 -43l137 648l-4 4q-121 -105 -238 -105q-77 0 -142.5 40.5t-103.5 109.5t-38 149q0 150 135 287q91 91 265 149t401 58q20 0 33 -0.5t28 -1.5zM623 158l106 510q-36 6 -72 6
q-138 0 -251 -96q-39 -36 -67 -83t-44 -101.5t-16 -106.5q0 -58 23.5 -105t63.5 -74.5t89 -27.5q41 0 78.5 17t89.5 61z" />
    <glyph glyph-name="r" unicode="r" horiz-adv-x="788" 
d="M188 233l68 326q0 61 -27.5 88.5t-93.5 28.5l6 35l318 51h22l-61 -283l4 -4q50 112 121.5 199.5t126.5 87.5q32 0 59.5 -13.5t75.5 -54.5l-123 -198q-22 38 -52 60t-50 22q-83 0 -152 -172q-27 -69 -43 -141t-16 -111q0 -51 27 -77.5t91 -41.5l-8 -35h-456l8 35
q49 7 77 25t45.5 58t32.5 115z" />
    <glyph glyph-name="s" unicode="s" horiz-adv-x="705" 
d="M682 764l-49 -236h-31q-11 86 -59 131.5t-115 45.5q-46 0 -78.5 -22.5t-32.5 -57.5q0 -41 92.5 -139.5t139.5 -161.5t47 -148q0 -91 -74 -149t-190 -58q-64 0 -119 15q-66 12 -82 12q-42 0 -57 -25h-33l55 260h33q6 -97 50.5 -151.5t117.5 -54.5q48 0 83.5 28.5
t35.5 69.5q0 48 -33 94t-95 109t-96 112.5t-34 102.5q0 94 77.5 157.5t196.5 63.5q53 0 96 -10q7 -1 26 -5t27.5 -5t14.5 -1q32 0 55 23h31z" />
    <glyph glyph-name="t" unicode="t" horiz-adv-x="682" 
d="M686 731l-16 -74h-230l-92 -446q-4 -28 -4 -39q0 -41 21 -66.5t55 -25.5q53 0 170 80l24 -21q-46 -55 -99 -93.5t-110.5 -57.5t-113.5 -19q-67 0 -107.5 40.5t-40.5 111.5q0 23 9 63l98 473h-150l9 37q121 49 188 104t176 179h35l-51 -246h229z" />
    <glyph glyph-name="u" unicode="u" horiz-adv-x="1044" 
d="M168 287l51 245q6 31 6 52q0 93 -125 96l6 33l334 49h19l-115 -539q-4 -20 -4 -30q0 -47 31.5 -80t83.5 -33q44 0 101.5 40.5t113.5 108.5l63 303q6 34 6 60q0 47 -26 67.5t-92 20.5l6 33l327 49h19l-119 -563q-6 -31 -6 -54q0 -46 28.5 -68.5t94.5 -25.5l-8 -35
l-332 -45h-17l31 142l-4 4q-56 -68 -130.5 -108t-145.5 -40q-86 0 -146.5 58t-60.5 168q0 51 10 92z" />
    <glyph glyph-name="v" unicode="v" horiz-adv-x="874" 
d="M743 553l-346 -582h-43l-125 582q-15 71 -43.5 99.5t-99.5 41.5l6 37h422l-6 -37q-53 -9 -75.5 -32t-22.5 -70q0 -34 12 -96l59 -271l197 328q27 43 27 78q0 57 -93 63l6 37h293l-6 -37q-59 -19 -90.5 -46.5t-71.5 -94.5z" />
    <glyph glyph-name="w" unicode="w" horiz-adv-x="1300" 
d="M1229 551l-381 -580h-31l-92 533l-393 -533h-39l-66 553q-17 156 -104 170l6 37h363l-7 -37q-45 -17 -62 -41t-17 -71q0 -15 8 -93l32 -264l269 357q-12 57 -38 81.5t-79 30.5l6 37h387l-6 -37q-44 -10 -63 -35t-19 -71q0 -43 15 -121l38 -229l207 311q25 37 25 74
q0 54 -62 71l7 37h247l-6 -37q-37 -8 -69 -43.5t-76 -99.5z" />
    <glyph glyph-name="x" unicode="x" horiz-adv-x="854" 
d="M524 430l115 -291q19 -46 34 -66.5t39 -28.5t64 -9l-6 -35h-364l8 35q30 0 44.5 8.5t14.5 26.5t-16 61l-60 154l-141 -160q-39 -45 -39 -66t59 -24l-8 -35h-229l8 35q20 3 35 9.5t29 18t30.5 28t44.5 48.5l187 209l-94 260q-17 48 -40 65.5t-73 20.5l8 37h342l-8 -37
q-55 -3 -55 -37q0 -16 4 -26l47 -142l125 144q12 12 12 29q0 29 -39 32l8 37h217l-8 -37q-41 -8 -66.5 -24t-68.5 -62z" />
    <glyph glyph-name="y" unicode="y" horiz-adv-x="831" 
d="M731 514l-434 -731q-56 -95 -150 -188t-194 -132q-52 -19 -102.5 -24.5t-129.5 -5.5l48 143q49 2 101 8t105 22t103 46q76 45 117 95.5t120 176.5l-100 606q-25 156 -123 164l8 37h387l-8 -37q-90 -15 -90 -98q0 -31 6 -70l56 -368h4l227 391q33 53 33 78q0 32 -26 49.5
t-58 17.5l8 37h281l-9 -37q-45 -16 -85 -51t-95 -129z" />
    <glyph glyph-name="z" unicode="z" 
d="M49 53l576 623h-242q-63 0 -104 -28.5t-74 -96.5h-35l37 180h670v-55l-580 -623h240q90 0 143.5 36t81.5 108h35l-43 -197h-705v53z" />
    <glyph glyph-name="braceleft" unicode="{" horiz-adv-x="807" 
d="M266 272v33q104 17 166 77t62 142q0 56 -23 142q-22 99 -22 172q0 148 106.5 258t271.5 133l-8 -37q-221 -56 -221 -240q0 -40 23 -147q22 -93 22 -168q0 -113 -77.5 -204.5t-217.5 -141.5v-4q138 -48 216.5 -139.5t78.5 -204.5q0 -74 -22 -168q-8 -38 -15.5 -78
t-7.5 -70q0 -183 221 -239l8 -37q-109 15 -195.5 70.5t-134.5 139t-48 181.5q0 69 22 172q23 86 23 141q0 83 -61.5 143t-166.5 74z" />
    <glyph glyph-name="bar" unicode="|" horiz-adv-x="1079" 
d="M537 1274h133v-1718h-133v1718z" />
    <glyph glyph-name="braceright" unicode="}" horiz-adv-x="807" 
d="M705 305v-33q-104 -14 -166 -74t-62 -143q0 -47 23 -141q22 -86 22 -172q0 -98 -48 -181.5t-135.5 -139t-195.5 -70.5l9 37q221 56 221 239q0 50 -23 148q-22 112 -22 168q0 74 35 140.5t101.5 119t158.5 84.5v4q-139 50 -217 142t-78 204q0 39 7.5 87t14.5 81
q23 98 23 147q0 184 -221 240l-9 37q108 -15 195 -70.5t135.5 -139t48.5 -181.5q0 -89 -22 -172q-23 -94 -23 -142q0 -81 62.5 -142t165.5 -77z" />
    <glyph glyph-name="asciitilde" unicode="~" horiz-adv-x="1366" 
d="M1235 844h63q-8 -163 -81.5 -255.5t-198.5 -92.5q-61 0 -128.5 22t-182.5 70q-96 42 -161 66t-112 24q-143 0 -172 -180h-63q1 167 77.5 257.5t194.5 90.5q68 0 147.5 -25t172.5 -65q131 -58 179 -76t91 -18q74 0 119.5 47.5t54.5 134.5z" />
    <glyph glyph-name="exclamdown" unicode="&#xa1;" horiz-adv-x="532" 
d="M332 393l-90 -755q-15 -127 -44.5 -180.5t-84.5 -53.5q-36 0 -59 27t-23 69q0 64 37 174l229 719h35zM346 471q-52 0 -90.5 38.5t-38.5 92.5t37.5 93.5t91.5 39.5q55 0 93 -39.5t38 -93.5t-38.5 -92.5t-92.5 -38.5z" />
    <glyph glyph-name="cent" unicode="&#xa2;" 
d="M643 760q34 -6 64 -6q17 0 65 8h27l-27 -230h-35q-11 153 -110 162l-148 -608q25 -8 53 -8q47 0 90.5 23.5t104.5 74.5l23 -24q-83 -92 -155 -136t-144 -47l-132 -538h-51l131 540q-96 15 -157.5 95t-61.5 188q0 132 56.5 243.5t152 182t205.5 82.5l111 448h49zM434 115
l141 571q-53 -15 -99.5 -81.5t-72.5 -158t-26 -180.5q0 -45 14.5 -85.5t42.5 -65.5z" />
    <glyph glyph-name="sterling" unicode="&#xa3;" 
d="M715 518l-15 -72h-200q-24 -140 -58 -206q45 -18 154 -83t143 -65q57 0 109 84l31 -10q-25 -90 -85 -143.5t-135 -53.5q-50 0 -86 20t-194 126q-36 -64 -96.5 -105t-120.5 -41q-54 0 -88.5 33.5t-34.5 85.5q0 48 30.5 91t84 70t118.5 27q18 0 52 -4q17 67 24 174h-225
l14 72h209v55q0 156 19.5 255t51.5 158t79 106q40 41 87 62.5t93 21.5q75 0 129.5 -49.5t73.5 -133.5l-31 -16q-35 69 -62.5 94t-66.5 25q-62 0 -96 -56.5t-55.5 -169.5t-53.5 -352h201zM291 166q-44 16 -78 16q-54 0 -88.5 -24t-34.5 -62q0 -29 17 -45t43 -16q86 0 141 131
z" />
    <glyph glyph-name="fraction" unicode="&#x2044;" horiz-adv-x="213" 
d="M776 1229l-1079 -1243h-113l1067 1243h125z" />
    <glyph glyph-name="yen" unicode="&#xa5;" horiz-adv-x="1194" 
d="M797 621l-45 -220h387l-13 -57h-387l-28 -135q-9 -52 -9 -64q0 -31 13 -54.5t43 -37.5t82 -18l-9 -35h-579l8 35q74 11 115.5 31t63 54.5t36.5 102.5l25 121h-371l12 57h371l45 220h-369l13 57h356l-119 268q-31 68 -82 131t-112 64l6 35h504l-6 -35q-84 -3 -84 -86
q0 -50 34 -127l70 -176h8l162 202q57 73 57 119q0 57 -98 68l6 35h369l-6 -35q-65 -22 -113 -56.5t-129 -132.5l-219 -274h393l-12 -57h-389z" />
    <glyph glyph-name="florin" unicode="&#x192;" horiz-adv-x="1366" 
d="M1051 733l-15 -74h-145l-121 -690q-51 -286 -189 -416.5t-358 -130.5q-131 0 -225 33l70 240h32q12 -94 58 -148.5t116 -54.5q112 0 180.5 91.5t94.5 234.5l151 841h-172l15 74h174q19 136 56.5 237t94 168.5t129.5 100.5t162 33q69 0 152 -23l22 21h33l-76 -248h-30
q-6 105 -36 151t-89 46q-71 0 -113.5 -63t-64 -155t-50.5 -268h144z" />
    <glyph glyph-name="section" unicode="&#xa7;" 
d="M424 1049q0 -30 13.5 -58t32 -52.5t79 -98.5t98.5 -125q117 -152 162 -236t45 -162q0 -121 -72 -223.5t-204 -173.5q56 -86 79 -143t23 -113q0 -72 -34.5 -126.5t-99.5 -85t-147 -30.5q-153 0 -234 81.5t-81 172.5q0 49 34 85t81 36q43 0 71.5 -28.5t28.5 -69.5
q0 -25 -16.5 -65t-16.5 -60q0 -39 39.5 -70.5t91.5 -31.5q59 0 103.5 38.5t44.5 90.5q0 35 -17.5 62.5t-94.5 122.5t-140 181q-101 139 -139.5 216t-38.5 157q0 53 19 108.5t56 106t86.5 91t112.5 71.5q-104 152 -104 264q0 54 30 110t93.5 94t152.5 38q73 0 133.5 -21.5
t101.5 -58t63 -82t22 -96.5q0 -57 -32.5 -94t-78.5 -37q-44 0 -72 30.5t-28 79.5q0 27 16 69t16 52q0 26 -19 52t-50.5 41.5t-65.5 15.5q-59 0 -101 -37t-42 -88zM420 676q-148 -83 -148 -209q0 -39 22 -94t55.5 -112.5t93.5 -144.5l102 -147q68 32 104.5 85.5t36.5 111.5
q0 55 -24 120t-81 155.5t-161 234.5z" />
    <glyph glyph-name="currency" unicode="&#xa4;" horiz-adv-x="1401" 
d="M698 997q-136 0 -229.5 -95.5t-93.5 -231.5t93.5 -232t229.5 -96q89 0 164 43.5t118.5 119.5t43.5 165q0 90 -43.5 165t-118.5 118.5t-164 43.5zM698 1124q147 0 273 -90l127 129l90 -92l-127 -127q47 -72 67.5 -132.5t20.5 -141.5q0 -158 -90 -273l129 -131l-90 -90
l-127 127q-70 -48 -132 -69t-141 -21q-54 0 -98.5 10t-86 29.5t-85.5 50.5l-127 -127l-90 90l127 129q-92 122 -92 275q0 158 92 274l-127 127l90 92l127 -129q113 90 270 90z" />
    <glyph glyph-name="quotesingle" unicode="'" horiz-adv-x="569" 
d="M336 682l-53 299q-3 19 -8.5 49.5t-10 68t-4.5 54.5q0 119 96 119q43 0 74 -28.5t31 -78.5q0 -35 -27 -184l-55 -299h-43z" />
    <glyph glyph-name="quotedblleft" unicode="&#x201c;" 
d="M1040 1272l-8 -33q-97 -25 -147.5 -83.5t-50.5 -121.5q0 -15 17 -29t37 -28t34 -37.5t14 -65.5q0 -37 -17 -66t-47 -46t-67 -17q-59 0 -94 39.5t-35 106.5q0 83 44.5 164.5t127.5 140.5t192 76zM678 1272l-8 -33q-98 -25 -148.5 -83.5t-50.5 -121.5q0 -15 17 -29t37 -28
t34 -37.5t14 -65.5q0 -37 -17 -66t-47 -46t-67 -17q-59 0 -94 39.5t-35 106.5q0 83 44.5 164t128 140.5t192.5 76.5z" />
    <glyph glyph-name="guillemotleft" unicode="&#xab;" 
d="M920 797l-232 -441v-356h-29l-157 416l387 381h31zM545 797l-232 -441v-356h-28l-158 416l387 381h31z" />
    <glyph glyph-name="guilsinglleft" unicode="&#x2039;" horiz-adv-x="555" 
d="M541 797l-232 -441v-356h-28l-158 416l387 381h31z" />
    <glyph glyph-name="guilsinglright" unicode="&#x203a;" horiz-adv-x="555" 
d="M31 0l231 440v357h29l158 -416l-388 -381h-30z" />
    <glyph glyph-name="fi" unicode="&#xf001;" horiz-adv-x="1153" 
d="M748 195l73 350q4 24 4 35q0 71 -92 71h-264l-100 -585q-27 -165 -74.5 -298.5t-124.5 -209.5q-47 -48 -149 -88.5t-214 -40.5q-127 0 -225 43l68 219h37q6 -87 55.5 -142t118.5 -55q52 0 94.5 21.5t78 65.5t62 109.5t41.5 151.5l142 809h-170l14 72h170q17 119 52.5 214
t95 168.5t145.5 114t198 40.5q46 0 86.5 -5t96.5 -18l20 25h39l-65 -226h-37q-13 83 -58 128.5t-112 45.5q-88 0 -142 -67.5t-80 -188.5l-49 -231h285q94 0 238 18h51l-117 -555q-8 -40 -8 -57q0 -39 23.5 -62t76.5 -32l-8 -35h-430l8 35q71 13 100 47t46 113zM852 887
q0 38 35 63t82 25t82.5 -25.5t35.5 -62.5q0 -36 -35 -63t-83 -27t-82.5 26.5t-34.5 63.5z" />
    <glyph glyph-name="fl" unicode="&#xf002;" horiz-adv-x="1153" 
d="M748 174l100 477h-383l-111 -651q-24 -145 -71 -258.5t-105 -171.5q-141 -141 -360 -141q-65 0 -134.5 12t-101.5 31l68 221h33q12 -95 60 -147t118 -52q47 0 99.5 27t99.5 100t69 199l145 831h-170l17 72h170q15 120 55.5 221t103 171t146 107.5t182.5 37.5
q81 0 195 -27l16 24h35l-14 -69l147 22l-221 -1040q-4 -24 -4 -37q0 -92 112 -98l-8 -35h-446l8 35q70 11 103 41t47 98zM864 723l54 256q4 28 4 41q0 50 -24.5 90t-65 62t-82.5 22q-90 0 -143.5 -69.5t-82.5 -202.5l-43 -199h383z" />
    <glyph glyph-name="emdash" unicode="&#x2013;" horiz-adv-x="1024" 
d="M-12 483h1048v-129h-1048v129z" />
    <glyph glyph-name="dagger" unicode="&#x2020;" horiz-adv-x="1044" 
d="M360 -578h-53q57 263 80 416t23 285q0 24 -4 84t-10.5 114t-16.5 105q57 52 88.5 86.5t55 76t55.5 118.5q-44 -1 -85 -13.5t-80 -27.5l-74.5 -28t-55.5 -13q-47 0 -84 33t-37 77q0 43 37 75t84 32q31 0 102.5 -27.5t112 -39.5t92.5 -13q2 16 2 49q0 73 -16.5 151.5
t-16.5 106.5q0 62 39.5 108t93.5 46q28 0 52 -16t37.5 -42t13.5 -59q0 -39 -15.5 -75.5t-41 -79.5l-54.5 -94t-41 -95q43 3 70 12t82 32t78.5 30.5t54.5 7.5q52 0 86.5 -32t34.5 -81q0 -46 -35 -78t-86 -32q-34 0 -65.5 9.5t-73 27.5t-78 30.5t-80.5 18.5q-4 -38 -4 -56
q0 -121 75 -225q-71 -118 -121 -239.5t-98 -290t-123 -474.5z" />
    <glyph glyph-name="daggerdbl" unicode="&#x2021;" horiz-adv-x="1044" 
d="M782 1114q0 -36 -14.5 -67.5t-48 -83t-49.5 -81.5t-27 -73q64 6 143 38t125 32q51 0 85 -31.5t34 -75.5q0 -43 -35 -74.5t-84 -31.5q-28 0 -50 8t-69 29t-89 35.5t-72 15.5q0 -129 53 -224q-84 -70 -116.5 -124t-32.5 -119q0 -75 61 -174q-105 -99 -145 -219
q51 10 94.5 25l68 24t54.5 17.5t51 8.5q31 0 58 -13t42 -37t15 -50q0 -47 -34 -77t-87 -30q-34 0 -86 24.5t-84.5 35.5t-104.5 12q-4 -48 -4 -65q0 -29 9.5 -91.5t9.5 -107.5q0 -62 -35.5 -105t-85.5 -43q-40 0 -69.5 29.5t-29.5 71.5q0 29 15 60.5t43 73.5t51 86t39 91
q-39 0 -69.5 -9t-75.5 -28t-72 -27t-53 -8q-52 0 -86.5 30t-34.5 75q0 40 36 71t80 31q39 0 138.5 -34t148.5 -41q0 79 -14 127t-47 92q75 61 112 120t37 132q0 42 -13 77t-48 88q64 57 95.5 102.5t57.5 121.5q-44 -5 -77 -15.5t-74 -27t-67.5 -24t-53.5 -7.5q-51 0 -84 28
t-33 74q0 42 34 70.5t83 28.5q29 0 94 -24.5t93 -34t98 -13.5q1 10 1.5 18.5t0.5 22.5q0 60 -12.5 133.5t-12.5 97.5q0 64 33 103t86 39q39 0 69.5 -33t30.5 -76z" />
    <glyph glyph-name="periodcentered" unicode="&#x2219;" horiz-adv-x="532" 
d="M342 764q54 0 91.5 -37.5t37.5 -93.5q0 -54 -37.5 -93.5t-91.5 -39.5t-92.5 40t-38.5 93q0 54 38.5 92.5t92.5 38.5z" />
    <glyph glyph-name="paragraph" unicode="&#xb6;" horiz-adv-x="1106" 
d="M975 1313v-1759h-74v1759h-186v-1759h-74v1052q-226 10 -352.5 93.5t-126.5 291.5q0 86 30 155.5t88 119.5t141 77t191 27h494v-57h-131z" />
    <glyph glyph-name="bullet" unicode="&#x2022;" horiz-adv-x="717" 
d="M188 590q0 107 74.5 179.5t177.5 72.5q70 0 127 -33.5t90 -92t33 -126.5q0 -70 -33 -128t-90 -92t-127 -34q-104 0 -178 74t-74 180z" />
    <glyph glyph-name="quotesinglbase" unicode="&#x201a;" horiz-adv-x="532" 
d="M-25 -293l9 33q99 27 148.5 84t49.5 121q0 21 -33.5 44t-51 43.5t-17.5 71.5q0 37 17 66t47 46t67 17q60 0 94.5 -38.5t34.5 -108.5q0 -82 -44.5 -163t-128 -140t-192.5 -76z" />
    <glyph glyph-name="quotedblbase" unicode="&#x201e;" 
d="M420 -293l8 33q98 27 148.5 84t50.5 121q0 21 -33 43t-51.5 43t-18.5 73q0 37 17 66t46.5 46t67.5 17q60 0 94.5 -38.5t34.5 -108.5q0 -82 -44.5 -163t-127.5 -140t-192 -76zM57 -293l9 33q99 27 148.5 84t49.5 121q0 21 -33.5 44t-51 43.5t-17.5 71.5q0 37 17 66t47 46
t67 17q60 0 94.5 -38.5t34.5 -108.5q0 -82 -44.5 -163t-128 -140t-192.5 -76z" />
    <glyph glyph-name="quotedblright" unicode="&#x201d;" 
d="M522 745l8 33q100 27 149.5 84t49.5 121q0 21 -33 43.5t-51 43t-18 73.5q0 37 17 66t47 46t67 17q60 0 94.5 -38.5t34.5 -109.5q0 -81 -45 -162.5t-128 -140.5t-192 -76zM160 745l8 33q98 27 148.5 84t50.5 121q0 21 -32.5 42.5t-51.5 43t-19 74.5q0 37 17 66t47 46
t67 17q60 0 94.5 -38.5t34.5 -109.5q0 -62 -25 -122.5t-72.5 -114t-115.5 -91.5t-151 -51z" />
    <glyph glyph-name="guillemotright" unicode="&#xbb;" 
d="M436 0l232 440v357h28l158 -416l-387 -381h-31zM63 0l232 440v357h29l157 -416l-387 -381h-31z" />
    <glyph glyph-name="ellipsis" unicode="&#x2026;" horiz-adv-x="2048" 
d="M1554 123q0 43 21 77.5t55 54t76 19.5q62 0 107 -44t45 -107q0 -43 -20.5 -78t-54.5 -55.5t-77 -20.5t-77 20.5t-54.5 55t-20.5 78.5zM872 123q0 43 21 77.5t55 54t76 19.5q62 0 107 -44t45 -107q0 -43 -20.5 -78t-54.5 -55.5t-77 -20.5t-77 20.5t-54.5 55t-20.5 78.5z
M190 123q0 43 21 77.5t55 54t76 19.5q62 0 107 -44t45 -107q0 -43 -20.5 -78t-54.5 -55.5t-77 -20.5t-77 20.5t-54.5 55t-20.5 78.5z" />
    <glyph glyph-name="perthousand" unicode="&#x2030;" horiz-adv-x="2134" 
d="M489 1192q-43 0 -83 -53t-63.5 -138.5t-23.5 -177.5q0 -194 82 -194q47 0 87.5 52.5t65 140.5t24.5 190q0 180 -89 180zM528 1241q83 0 137 -65t54 -166q0 -105 -50 -204.5t-130.5 -162.5t-163.5 -63q-86 0 -142.5 65.5t-56.5 165.5q0 93 47 194.5t128.5 168.5t176.5 67z
M1417 1241l-1071 -1255h-125l1071 1255h125zM1907 645q53 0 97 -30t68.5 -83.5t24.5 -117.5q0 -105 -50 -204.5t-130.5 -162.5t-163.5 -63q-86 0 -142.5 65.5t-56.5 165.5q0 93 47 194t129 168.5t177 67.5zM1868 596q-43 0 -83 -53t-63.5 -138.5t-23.5 -177.5
q0 -97 20.5 -145.5t61.5 -48.5q46 0 86.5 52.5t65 140.5t24.5 190q0 180 -88 180zM1270 645q53 0 97 -30t68.5 -83.5t24.5 -117.5q0 -105 -50 -204.5t-130.5 -162.5t-163.5 -63q-87 0 -142.5 65.5t-55.5 165.5q0 93 47.5 195t128.5 168.5t176 66.5zM1231 596q-43 0 -83 -53
t-63.5 -138.5t-23.5 -177.5q0 -97 20.5 -145.5t61.5 -48.5q46 0 86.5 52.5t65 140.5t24.5 190q0 180 -88 180z" />
    <glyph glyph-name="questiondown" unicode="&#xbf;" horiz-adv-x="748" 
d="M506 385h39q-8 -80 -32.5 -134t-53 -85.5t-86.5 -80t-88 -79.5q-65 -65 -90 -119t-25 -110q0 -60 48.5 -107t115.5 -47q58 0 103.5 29t107.5 104l33 -12q-48 -125 -134.5 -196.5t-193.5 -71.5q-103 0 -171.5 74.5t-68.5 193.5q0 156 129 285q34 34 108 85.5l115 82t81 77
t63 111.5zM582 467q-52 0 -90.5 38.5t-38.5 92.5t37.5 93.5t91.5 39.5t92.5 -39.5t38.5 -93.5t-39.5 -92.5t-91.5 -38.5z" />
    <glyph glyph-name="grave" unicode="`" horiz-adv-x="682" 
d="M166 1237h358l127 -346h-35z" />
    <glyph glyph-name="acute" unicode="&#xb4;" horiz-adv-x="682" 
d="M870 1237l-450 -346h-35l127 346h358z" />
    <glyph glyph-name="circumflex" unicode="&#x2c6;" horiz-adv-x="682" 
d="M705 1249l86 -375h-37l-181 205l-438 -205h-29l390 375h209z" />
    <glyph glyph-name="tilde" unicode="&#x2dc;" horiz-adv-x="682" 
d="M868 1198q0 -72 -31.5 -133t-85 -97t-114.5 -36q-40 0 -82 12t-90 33t-82.5 33t-69.5 12q-86 0 -110 -84h-27q0 72 31 132t83 96t113 36q38 0 83.5 -13t84.5 -30t83.5 -33t70.5 -16q88 0 117 88h26z" />
    <glyph glyph-name="macron" unicode="&#xaf;" horiz-adv-x="682" 
d="M852 1157l-35 -180h-637l35 180h637z" />
    <glyph glyph-name="breve" unicode="&#x2d8;" horiz-adv-x="682" 
d="M797 1210h22q-13 -85 -56.5 -156.5t-108.5 -113t-136 -41.5q-86 0 -148.5 57.5t-62.5 139.5q0 50 27 114h18q0 -92 52 -134t135 -42q161 0 258 176z" />
    <glyph glyph-name="dotaccent" unicode="&#x2d9;" horiz-adv-x="682" 
d="M586 1188q55 0 94 -39t39 -94q0 -56 -38.5 -95.5t-94.5 -39.5q-57 0 -96 39t-39 96q0 56 39.5 94.5t95.5 38.5z" />
    <glyph glyph-name="dieresis" unicode="&#xa8;" horiz-adv-x="682" 
d="M758 1200q55 0 94 -39t39 -96q0 -55 -39 -96t-94 -41q-56 0 -95.5 40.5t-39.5 96.5q0 58 39.5 96.5t95.5 38.5zM348 1200q55 0 94 -39t39 -96q0 -55 -39 -96t-94 -41q-56 0 -95.5 40.5t-39.5 96.5q0 58 39.5 96.5t95.5 38.5z" />
    <glyph glyph-name="ring" unicode="&#x2da;" horiz-adv-x="682" 
d="M555 1249q51 0 93.5 -25t67.5 -67.5t25 -93.5q0 -76 -54 -131t-132 -55q-76 0 -131 55t-55 131q0 78 55 132t131 54zM555 1180q-49 0 -83 -35t-34 -82q0 -46 34.5 -81.5t82.5 -35.5t82.5 34.5t34.5 82.5q0 49 -34 83t-83 34z" />
    <glyph glyph-name="cedilla" unicode="&#xb8;" horiz-adv-x="682" 
d="M342 0l-33 -70q148 -30 148 -159q0 -67 -44.5 -126.5t-126.5 -95.5t-186 -36q-19 0 -63 4l6 28q121 0 189.5 52.5t68.5 115.5q0 71 -86 107l76 180h51z" />
    <glyph glyph-name="hungarumlaut" unicode="&#x2dd;" horiz-adv-x="682" 
d="M606 1225l-295 -344h-37l37 344h295zM950 1225l-295 -344h-37l37 344h295z" />
    <glyph glyph-name="ogonek" unicode="&#x2db;" horiz-adv-x="682" 
d="M621 -172l32 -61q-61 -52 -118.5 -75.5t-124.5 -23.5q-93 0 -159.5 53.5t-66.5 128.5q0 108 86 175h74q-2 -12 -8 -45t-6 -41q0 -27 17.5 -59.5t57 -56.5t101.5 -24q35 0 52 4t63 25z" />
    <glyph glyph-name="caron" unicode="&#x2c7;" horiz-adv-x="682" 
d="M383 866l-86 371h37l180 -203l438 203h29l-389 -371h-209z" />
    <glyph glyph-name="endash" unicode="&#x2014;" horiz-adv-x="2048" 
d="M-12 483h2072v-129h-2072v129z" />
    <glyph glyph-name="AE" unicode="&#xc6;" horiz-adv-x="1812" 
d="M1772 1176l-43 -207h-37q-9 81 -31.5 109t-91.5 28h-289l-98 -467h211q97 0 146.5 24.5t70.5 79.5h32l-59 -288h-35q-12 67 -40.5 91.5t-92.5 24.5h-248l-73 -346q-9 -33 -9 -67q0 -51 35.5 -70.5t124.5 -19.5h170q98 0 163 44t130 152h37l-105 -264h-964l8 35
q75 8 111 46.5t55 131.5l41 193h-387l-174 -218q-37 -41 -37 -88q0 -30 23 -47.5t67 -17.5l-8 -35h-375l8 35q53 10 96.5 33.5t74.5 54.5t81 92l758 961h754zM1028 1073l-459 -584h340l123 580z" />
    <glyph glyph-name="ordfeminine" unicode="&#xaa;" horiz-adv-x="662" 
d="M694 1210l-67 -323q-6 -31 -6 -51q0 -25 16.5 -34t60.5 -11l-6 -33l-241 -33l14 66q-46 -34 -87 -50t-85 -16q-48 0 -86.5 20.5t-61 55.5t-22.5 78q0 81 54 157t165 125t272 49h80zM541 1149h-49q-76 0 -125.5 -44t-71 -104t-21.5 -102q0 -38 25.5 -66t60.5 -28
q51 0 125 78z" />
    <glyph glyph-name="Lslash" unicode="&#x141;" horiz-adv-x="1067" 
d="M1067 260l-104 -260h-924l8 35q65 11 98 30t54 56.5t34 101.5l52 232l-4 4l-207 -172l20 102l213 170l78 367q12 52 12 88q0 49 -31.5 75t-111.5 39l6 35h567l-6 -35q-81 -22 -114.5 -39.5t-51.5 -51.5t-34 -111l-37 -164l4 -4l209 174l-21 -101l-213 -172l-90 -405
q-14 -68 -14 -94q0 -52 31.5 -72t105.5 -20h139q84 0 150.5 43.5t146.5 148.5h35z" />
    <glyph glyph-name="Oslash" unicode="&#xd8;" horiz-adv-x="1366" 
d="M428 215l629 801q-24 40 -57 66.5t-72.5 39.5t-81.5 13q-133 0 -237.5 -114t-160 -285.5t-55.5 -327.5q0 -50 9 -101t26 -92zM367 35l-76 -96l-47 41l71 90q-165 137 -165 368q0 136 56 273.5t159 250t239 178.5t293 66q65 0 136.5 -18t119.5 -49l80 100l47 -37l-78 -100
q78 -59 121 -154.5t43 -214.5q0 -144 -59.5 -282.5t-162.5 -246.5t-237 -171.5t-274 -63.5q-152 0 -266 66zM1087 956l-626 -800q34 -55 91 -86t120 -31q103 0 187 68t142.5 178t89.5 238.5t31 246.5q0 114 -35 186z" />
    <glyph glyph-name="OE" unicode="&#x152;" horiz-adv-x="1878" 
d="M1282 569l-74 -348q-8 -44 -8 -61q0 -49 26.5 -70.5t88.5 -21.5h188q81 0 144.5 47t121.5 147h39l-104 -262h-811q-21 0 -111 -8t-135 -8q-127 0 -223 40.5t-153 107t-84 146t-27 158.5q0 115 46.5 247.5t138.5 248.5t230.5 188t313.5 72q33 0 127 -8q98 -8 153 -8h668
l-45 -213h-39q-8 64 -19.5 92.5t-38 39.5t-73.5 11h-227l-99 -469h205q39 0 72 11t56 34t42 61h35l-61 -292h-35q-8 68 -41 93t-115 25h-172zM993 315l115 545q10 52 10 88q0 172 -225 172q-142 0 -239.5 -78t-151 -192t-76.5 -228.5t-23 -195.5q0 -103 30.5 -187t96.5 -135
t166 -51q114 0 192 65.5t105 196.5z" />
    <glyph glyph-name="ordmasculine" unicode="&#xba;" horiz-adv-x="662" 
d="M520 1210q50 0 91.5 -23t66 -61.5t24.5 -83.5q0 -78 -48.5 -151t-127 -119.5t-157.5 -46.5q-84 0 -142.5 48.5t-58.5 119.5q0 79 50 152.5t131.5 119t170.5 45.5zM477 1155q-42 0 -78 -37.5t-58 -100.5t-22 -134q0 -46 19.5 -74.5t50.5 -28.5q50 0 86.5 40t56 105.5
t19.5 129.5q0 46 -20 73t-54 27z" />
    <glyph glyph-name="ae" unicode="&#xe6;" horiz-adv-x="1450" 
d="M1331 197l25 -21q-159 -207 -369 -207q-107 0 -181 50t-124 157q-56 -65 -115.5 -111.5t-119 -71t-115.5 -24.5q-100 0 -172 73.5t-72 178.5q0 126 85.5 252.5t217.5 192.5q144 72 363 92q49 4 454 4q89 0 140 -35.5t51 -99.5q0 -61 -62 -123t-157 -96
q-65 -22 -152 -43.5t-162 -34.5l-4 -47q0 -84 61 -143.5t148 -59.5q69 0 128 26t132 91zM672 250l-2 49q0 73 37.5 154t99.5 143q39 36 94 74q-84 20 -149 20q-114 0 -196.5 -27.5t-141.5 -84.5q-56 -58 -92.5 -146.5t-36.5 -171.5q0 -78 40.5 -129t100.5 -51q76 0 152 70
q40 37 94 100zM1202 608q0 37 -23 62.5t-57 25.5q-90 0 -162.5 -93.5t-82.5 -223.5q97 9 170.5 42.5t114 82.5t40.5 104z" />
    <glyph glyph-name="dotlessi" unicode="&#x131;" horiz-adv-x="575" 
d="M483 754l-121 -574q-6 -30 -6 -51q0 -43 26 -64.5t85 -29.5l-6 -35h-447l9 35q69 12 101.5 42t45.5 95l70 338q8 36 8 72q-2 49 -30 69t-99 21l8 35l334 47h22z" />
    <glyph glyph-name="lslash" unicode="&#x142;" horiz-adv-x="575" 
d="M586 1210l-113 -522l166 121l-18 -86l-166 -123l-88 -420q-7 -28 -7 -53q0 -44 26.5 -66.5t88.5 -25.5l-8 -35h-449l7 35q84 9 112 47t49 145l50 240l-175 -129l19 92l176 127l80 371q12 55 12 96q0 54 -28 79t-103 25l6 35l344 47h19z" />
    <glyph glyph-name="oslash" unicode="&#xf8;" horiz-adv-x="918" 
d="M645 594l-385 -444q7 -51 41 -83t74 -32q84 0 146 71t95 182.5t33 225.5q0 30 -4 80zM158 29l-76 -86l-41 34l76 86q-27 29 -46.5 80t-19.5 105q0 113 67 233.5t187.5 200.5t269.5 80q57 0 123 -31l45 53l37 -32l-41 -50q103 -82 103 -210q0 -92 -42.5 -187t-114.5 -171
t-163.5 -120.5t-179.5 -44.5q-55 0 -103.5 17t-80.5 43zM248 215l375 428q-36 51 -109 51q-79 0 -140 -73.5t-93.5 -186t-32.5 -219.5z" />
    <glyph glyph-name="oe" unicode="&#x153;" horiz-adv-x="1450" 
d="M1335 197l25 -23q-160 -205 -375 -205q-58 0 -103 13.5t-83.5 45t-75.5 81.5q-47 -35 -91.5 -61.5t-87.5 -45t-82 -26t-77 -7.5q-130 0 -214.5 77.5t-84.5 197.5q0 126 74 247t192.5 196t245.5 75q170 0 268 -127q91 65 173.5 96t168.5 31q89 0 140 -35.5t51 -99.5
q0 -59 -54 -115t-153 -100q-56 -24 -146 -47.5t-180 -34.5l-4 -47q0 -84 61 -143.5t148 -59.5q135 0 264 117zM1212 598q0 40 -25 64t-63 24q-47 0 -102.5 -35.5t-97.5 -105t-54 -170.5q71 8 122 23t100 40q38 21 64 47.5t41 56t15 56.5zM283 246q0 -100 38.5 -155.5
t108.5 -55.5q111 0 190.5 138.5t79.5 330.5q0 55 -12 88t-41 61q-17 19 -42.5 30t-49.5 11q-35 0 -77.5 -19t-63.5 -44q-60 -70 -95.5 -175t-35.5 -210z" />
    <glyph glyph-name="germandbls" unicode="&#xdf;" horiz-adv-x="1044" 
d="M66 -213l215 1016q20 93 56 169.5t91.5 133t128 87t164.5 30.5q75 0 134.5 -19t102 -52t67 -79t24.5 -102q0 -111 -78.5 -199t-237.5 -92v-4q256 -57 256 -289q0 -107 -51.5 -204t-138 -155.5t-181.5 -58.5q-58 0 -114.5 24.5t-116.5 78.5l94 166l29 -17
q-29 -81 -29 -121q0 -82 78 -82q39 0 79 29t72.5 81t52 125.5t19.5 164.5q0 113 -41.5 170.5t-136.5 75.5l6 32q128 3 190 100t62 210q0 48 -17 83.5t-50 54.5t-78 19q-167 0 -219 -248l-224 -1054q-32 -147 -98.5 -245t-150 -146t-162.5 -48q-64 0 -134 23.5t-106 56.5
l78 176l35 -10q-4 -16 -4 -47q0 -65 31.5 -102t74.5 -37q63 0 129 75t99 230z" />
    <glyph glyph-name="divide" unicode="&#xf7;" horiz-adv-x="1368" 
d="M750 221q36 0 60 -24t24 -60q0 -37 -23.5 -61.5t-60.5 -24.5t-60.5 24.5t-23.5 61.5q0 36 24 60t60 24zM666 965q0 36 24 60t60 24t60 -24t24 -60t-24 -61t-60 -25t-60 25t-24 61zM205 614h1089v-129h-1089v129z" />
    <glyph glyph-name="threequarters" unicode="&#xbe;" horiz-adv-x="1493" 
d="M1413 645l-94 -440h94l-12 -66h-94l-33 -153h-131l33 153h-314l4 29l508 477h39zM1417 1241l-1079 -1255h-113l1067 1255h125zM322 1122l-25 27q48 45 107.5 68.5t119.5 23.5q46 0 80 -15.5t53 -44t19 -63.5q0 -61 -44.5 -103.5t-142.5 -78.5v-4q140 -32 140 -152
q0 -84 -74 -142t-180 -58q-133 0 -234 86l21 24q48 -27 79 -36t68 -9q78 0 127 46.5t49 119.5q0 31 -12 49.5t-45 28.5t-98 16l8 33q110 25 155.5 62.5t45.5 93.5q0 37 -25 59.5t-65 22.5q-51 0 -127 -54zM1237 455l-258 -250h209l53 246z" />
    <glyph glyph-name="onequarter" unicode="&#xbc;" horiz-adv-x="1493" 
d="M1413 645l-94 -440h94l-12 -66h-94l-33 -153h-131l33 153h-316l6 29l508 477h39zM1417 1241l-1079 -1255h-113l1067 1255h125zM1237 455l-258 -250h209l53 246zM602 1237l-125 -528q-8 -42 -8 -47q0 -22 19 -28.5t75 -6.5l-8 -31h-332l8 31q60 0 76 14.5t31 77.5l92 368
q6 25 6 37q0 21 -20 21q-24 0 -82 -27l6 31l219 88h43z" />
    <glyph glyph-name="onesuperior" unicode="&#xb9;" horiz-adv-x="641" 
d="M602 1237l-125 -528q-8 -42 -8 -47q0 -22 19 -28.5t75 -6.5l-8 -31h-332l8 31q60 0 76 14.5t31 77.5l92 366q6 25 6 37q0 21 -20 21q-18 0 -82 -27l6 33l219 88h43z" />
    <glyph glyph-name="multiply" unicode="&#xd7;" horiz-adv-x="1368" 
d="M248 952l94 95l408 -412l407 412l94 -95l-407 -411l407 -412l-94 -96l-407 411l-408 -411l-94 96l407 412z" />
    <glyph glyph-name="registered" unicode="&#xae;" horiz-adv-x="1530" 
d="M373 1124h385q89 0 157 -28t105 -79.5t37 -119.5q0 -168 -223 -223l208 -301q36 -50 59.5 -67.5t61.5 -20.5v-35h-184l-295 409h-74v-286q0 -33 9.5 -52.5t34 -27.5t73.5 -8v-35h-367v35q55 0 80 20t25 72v616q0 53 -20 75t-72 22v34zM610 702h29q119 0 187.5 49
t68.5 136q0 56 -26.5 99.5t-73 68t-103.5 24.5q-33 0 -82 -14v-363zM766 1401q193 0 355.5 -96.5t258 -262t95.5 -358.5q0 -144 -54 -275t-154 -231t-228.5 -154.5t-272.5 -54.5q-193 0 -356 96.5t-258 261t-95 357.5t95.5 358.5t258 262t355.5 96.5zM766 31
q176 0 324.5 87.5t235.5 238t87 327.5q0 178 -87 328t-236 237.5t-324 87.5t-324 -87.5t-236 -237.5t-87 -328q0 -177 87 -327.5t235.5 -238t324.5 -87.5z" />
    <glyph glyph-name="Thorn" unicode="&#xde;" horiz-adv-x="1174" 
d="M659 967l-10 -58q5 1 8.5 1.5t10.5 0.5q132 0 232 -40.5t156 -115.5t56 -171q0 -98 -53.5 -181t-146.5 -130.5t-205 -47.5q-105 0 -195 33l-20 -96q0 -118 145 -127l-8 -35h-555l6 35q65 14 100 33t53 52.5t29 88.5l168 805q0 115 -145 127l8 35h555l-6 -35
q-95 -21 -130.5 -56.5t-52.5 -117.5zM629 815l-107 -504q50 -18 92 -18q75 0 133 36t89.5 99.5t31.5 149.5q0 72 -29.5 125t-83 82.5t-126.5 29.5z" />
    <glyph glyph-name="brokenbar" unicode="&#xa6;" horiz-adv-x="1079" 
d="M537 285h133v-729h-133v729zM537 1274h133v-731h-133v731z" />
    <glyph glyph-name="Eth" unicode="&#xd0;" horiz-adv-x="1473" 
d="M119 557l12 66h234l100 460q-121 -25 -258 -135l-23 25q66 63 152.5 116.5t197.5 85t242 31.5q161 0 290.5 -47.5t219 -130.5t137 -192.5t47.5 -231.5q0 -244 -167 -411q-99 -102 -250.5 -147.5t-450.5 -45.5h-528l8 35q89 11 133 45.5t61 116.5l76 360h-233zM588 557
l-68 -311q-12 -49 -12 -84q0 -55 41 -75.5t149 -20.5q170 0 291 72.5t179.5 191t58.5 254.5q0 109 -39 205t-109.5 168t-163.5 111.5t-202 39.5h-11l-102 -485h215l-12 -66h-215z" />
    <glyph glyph-name="onehalf" unicode="&#xbd;" horiz-adv-x="1493" 
d="M1417 1241l-1079 -1255h-113l1067 1255h125zM602 1237l-125 -528q-8 -42 -8 -47q0 -22 19 -28.5t75 -6.5l-8 -31h-332l8 31q60 0 76 14.5t31 77.5l92 366q6 25 6 37q0 21 -20 21q-18 0 -82 -27l6 33l219 88h43zM1354 94l-21 -94h-438l8 33q183 140 280 258.5t97 197.5
q0 39 -26 62.5t-68 23.5q-39 0 -75 -20t-79 -63l-28 18q72 75 126.5 105t120.5 30q77 0 122.5 -36.5t45.5 -96.5q0 -81 -95.5 -185t-262.5 -229v-4h293z" />
    <glyph glyph-name="minus" unicode="&#x2212;" horiz-adv-x="1366" 
d="M203 608h1089v-127h-1089v127z" />
    <glyph glyph-name="ccedilla" unicode="&#xe7;" horiz-adv-x="725" 
d="M215 -180l66 157q-88 23 -142.5 99t-54.5 176q0 116 40.5 211.5t103.5 161t136.5 101.5t133.5 36q42 0 69 -6q12 -2 22.5 -3.5t11.5 -2t9 -0.5q36 0 66 12h29l-27 -234h-35q-12 166 -117 166q-78 0 -133.5 -72t-83.5 -173t-28 -185q0 -72 44.5 -125t108.5 -53q44 0 86 19
t113 71l22 -24q-89 -99 -162 -141t-165 -42l-19 -39q148 -30 148 -159q0 -67 -44.5 -126.5t-126.5 -95.5t-186 -36q-19 0 -63 4l6 28q121 0 189.5 52.5t68.5 115.5q0 71 -86 107z" />
    <glyph glyph-name="eth" unicode="&#xf0;" horiz-adv-x="948" 
d="M279 231q0 -89 36 -140.5t97 -51.5q80 0 147 75.5t106.5 189t39.5 218.5q0 82 -40.5 125t-113.5 43q-65 0 -115.5 -44t-85 -116t-53 -153t-18.5 -146zM1014 1206l-193 -100q43 -103 61.5 -220t18.5 -220q0 -165 -45.5 -297.5t-122.5 -221t-169.5 -133.5t-184.5 -45
q-134 0 -215.5 77.5t-81.5 205.5q0 121 73.5 240t190.5 194.5t234 75.5q75 0 151 -45q21 73 21 151q0 80 -23 191l-186 -96l-25 45l199 102q-25 99 -45 125l59 31q40 -46 70 -111l188 96z" />
    <glyph glyph-name="plusminus" unicode="&#xb1;" horiz-adv-x="1366" 
d="M137 86h1090v-127h-1090v127zM137 903h481v488h127v-488h482v-127h-482v-487h-127v487h-481v127z" />
    <glyph glyph-name="Ccedilla" unicode="&#xc7;" horiz-adv-x="1087" 
d="M461 -180l65 153q-120 15 -204.5 78.5t-129.5 171t-45 252.5q0 165 54.5 303.5t145 233t203.5 144.5t226 50q73 0 137 -12q58 -14 93 -14q51 0 73 43h31l-41 -326h-29q-15 114 -77 176t-152 62q-86 0 -161 -50.5t-134.5 -142t-92 -211t-32.5 -252.5q0 -181 83.5 -292
t219.5 -111q90 0 174 55.5t144 142.5l26 -16q-65 -111 -133.5 -174.5t-146.5 -89t-185 -25.5l-18 -39q147 -30 147 -159q0 -67 -44.5 -126.5t-126 -95.5t-185.5 -36q-19 0 -63 4l6 28q121 0 189.5 52.5t68.5 115.5q0 71 -86 107z" />
    <glyph glyph-name="thorn" unicode="&#xfe;" horiz-adv-x="1004" 
d="M549 1223l-105 -559q133 98 250 98q120 0 194.5 -77t74.5 -200q0 -127 -77.5 -246.5t-229.5 -194.5t-357 -75l-68 -321q-6 -31 -6 -51q0 -48 28 -70t89 -25l-8 -37l-307 -43h-33l328 1559q6 30 6 53q0 107 -113 107l6 35zM430 594l-117 -559q29 -4 72 -4q133 0 219 70.5
t124 166.5t38 166q0 104 -48 164.5t-128 60.5q-68 0 -160 -65z" />
    <glyph glyph-name="copyright" unicode="&#xa9;" horiz-adv-x="1530" 
d="M1114 1147l21 -285h-39q-35 119 -111 178.5t-192 59.5q-97 0 -169.5 -48t-111.5 -137.5t-39 -207.5q0 -139 42 -233.5t117 -138.5t171 -44q99 0 176 41t135 123l39 -21q-71 -105 -166 -155t-219 -50q-130 0 -236 59.5t-166.5 162.5t-60.5 227q0 131 65 238.5t179.5 169
t253.5 61.5q53 0 89.5 -9t77 -23.5t56.5 -14.5q17 0 27.5 9.5t21.5 37.5h39zM766 1401q193 0 355.5 -96.5t258 -262t95.5 -358.5q0 -144 -54 -275t-154 -231t-228.5 -154.5t-272.5 -54.5q-193 0 -356 96.5t-258 261t-95 357.5t95.5 358.5t258 262t355.5 96.5zM766 31
q176 0 324.5 87.5t235.5 238t87 327.5q0 178 -87 328t-236 237.5t-324 87.5t-324 -87.5t-236 -237.5t-87 -328q0 -177 87 -327.5t235.5 -238t324.5 -87.5z" />
    <glyph glyph-name="logicalnot" unicode="&#xac;" horiz-adv-x="1366" 
d="M203 858h1089v-625h-127v498h-962v127z" />
    <glyph glyph-name="twosuperior" unicode="&#xb2;" horiz-adv-x="641" 
d="M614 690l-20 -94h-438l8 33q183 140 280 258.5t97 197.5q0 38 -26.5 62t-68.5 24q-39 0 -74 -20t-79 -64l-29 19q72 75 127 105t121 30q76 0 122 -36.5t46 -96.5q0 -82 -93 -183t-265 -231v-4h292z" />
    <glyph glyph-name="threesuperior" unicode="&#xb3;" horiz-adv-x="641" 
d="M322 1122l-25 27q48 45 107.5 68.5t119.5 23.5q46 0 80 -15.5t53 -44t19 -63.5q0 -61 -44.5 -103.5t-142.5 -78.5v-4q140 -32 140 -152q0 -84 -74 -142t-180 -58q-133 0 -234 86l21 24q48 -27 79 -36t68 -9q78 0 127 46.5t49 119.5q0 31 -12 49.5t-45 28.5t-98 16l8 33
q110 25 155.5 62.5t45.5 93.5q0 37 -25 59.5t-65 22.5q-51 0 -127 -54z" />
    <glyph glyph-name="trademark" unicode="&#x2122;" horiz-adv-x="2048" 
d="M90 1370h729l23 -203h-35q-7 54 -29 85t-61 44t-103 13h-73v-576q0 -42 3.5 -68.5t14.5 -41t30.5 -20t55.5 -7.5v-41h-375v41q68 6 85.5 28.5t17.5 108.5v576h-80q-61 0 -99 -13t-59 -44.5t-31 -84.5h-34zM1198 1370l272 -577l267 577h276v-39q-51 -2 -72.5 -11
t-28.5 -34.5t-7 -89.5v-463q0 -43 4 -70.5t14.5 -40.5t30.5 -18t59 -8v-41h-399v41q56 2 80.5 11t33.5 34t9 80v489h-4l-306 -655h-32l-305 655h-5v-477q0 -86 19 -111.5t78 -25.5h37v-41h-310v41q52 0 75 9.5t31.5 38t8.5 89.5v463q0 61 -8 89.5t-32 37t-75 8.5v39h289z
" />
    <glyph glyph-name="degree" unicode="&#xb0;" horiz-adv-x="819" 
d="M166 1051q0 95 46 174.5t126.5 127.5t173.5 48t173.5 -48t126.5 -127.5t46 -174.5t-46 -175t-126.5 -128t-173.5 -48t-173.5 48t-126.5 128t-46 175zM293 1051q0 -60 29.5 -111.5t80 -81t109.5 -29.5t109.5 29.5t80 81t29.5 111.5q0 93 -64 157t-155 64t-155 -65
t-64 -156z" />
    <glyph glyph-name="mu" unicode="&#xb5;" horiz-adv-x="1024" 
d="M668 229l114 533h189l-119 -563q-6 -31 -6 -54q0 -43 28 -66t95 -30l-8 -33l-332 -45h-15l31 142l-4 4q-61 -71 -134.5 -109.5t-144.5 -38.5q-102 0 -165 82q-17 -75 -17 -155q0 -26 5 -88.5t5 -92.5q0 -52 -29 -81t-83 -29q-47 0 -77 24.5t-30 59.5q0 22 14.5 51.5
l40 78.5t54 127t51.5 185l137 631h189l-111 -524q-4 -15 -4 -43q0 -54 30.5 -84.5t80.5 -30.5q48 0 100.5 39.5t114.5 109.5z" />
    <glyph glyph-name="u009D" horiz-adv-x="1802" 
d="M213 487q23 0 36 -13t13 -36q0 -28 -48 -49.5t-71.5 -41.5t-23.5 -81q0 -65 49 -100t123 -35q2 1 4 1.5t4 0.5q70 0 138.5 26t113.5 75t45 114q0 50 -30 107t-88 143.5t-88 150.5t-30 130q0 201 197 376q89 81 204 138t218 57q70 0 117 -37t47 -106q0 -22 -6 -43
q88 80 202.5 136t219.5 56q70 0 116.5 -37t46.5 -106q0 -84 -59.5 -164t-146.5 -150q-72 -54 -145.5 -97.5t-123.5 -43.5q-19 0 -38 14t-19 33l2 4q0 40 70 66q110 36 206 110q73 59 109.5 113t36.5 92q0 31 -19 48.5t-53 17.5q-65 0 -150 -40t-147 -89q-76 -58 -134 -146.5
t-58 -173.5q0 -70 30.5 -134t90.5 -155.5t91 -151t31 -116.5q0 -92 -64 -164.5t-162 -111.5t-187 -39q-191 0 -262 110q-61 -54 -149 -85t-169 -31q-102 0 -170.5 33t-100.5 87t-32 115q2 89 61 156t152 67zM684 457q61 37 109 37q21 0 35 -14t14 -36q0 -19 -12.5 -29.5
t-40 -21t-46.5 -22t-32 -36t-13 -77.5q6 -57 54 -89t118 -32q2 1 4 1.5t5 0.5q70 0 138.5 26t113.5 75t45 114q0 50 -30 107t-88 143.5t-88 150.5t-30 130q0 69 23 135q-5 -4 -14 -14t-13 -13q-65 -51 -142.5 -96t-125.5 -45q-20 0 -39 14t-19 33l2 4q0 40 70 66
q108 35 207 110q72 60 108.5 113.5t36.5 91.5q0 31 -19 48.5t-52 17.5q-64 0 -148.5 -39.5t-148.5 -89.5q-78 -59 -135.5 -147t-57.5 -173q0 -55 20.5 -108t45 -94l76.5 -123t69 -119zM1300 86q0 60 68 212t151 281.5t115 129.5q16 0 27.5 -10.5t11.5 -28.5
q0 -15 -55.5 -101t-110.5 -193t-98 -251q-14 -50 -24 -69t-39 -19q-20 0 -33 15t-13 34zM1833 1104q24 0 36.5 -13.5t12.5 -35.5q0 -27 -21.5 -63.5t-51.5 -62.5t-56 -26q-47 0 -47 51q0 26 21 62t50.5 62t55.5 26z" />
    <glyph glyph-name="Aacute" unicode="&#xc1;" horiz-adv-x="1194" 
d="M743 221v180h-309l-149 -227q-29 -46 -29 -74q0 -51 100 -65l-6 -35h-358l6 35q59 7 97.5 32t67 62t87.5 125l631 952h98v-999q0 -63 9.5 -100t40 -54t91.5 -18l-6 -35h-518l6 35q57 6 87.5 23.5t42 55t11.5 107.5zM743 483v391h-4l-252 -391h256zM1284 1653l-450 -346
h-35l127 346h358z" />
    <glyph glyph-name="Acircumflex" unicode="&#xc2;" horiz-adv-x="1194" 
d="M743 221v180h-309l-149 -227q-29 -46 -29 -74q0 -51 100 -65l-6 -35h-358l6 35q59 7 97.5 32t67 62t87.5 125l631 952h98v-999q0 -63 9.5 -100t40 -54t91.5 -18l-6 -35h-518l6 35q57 6 87.5 23.5t42 55t11.5 107.5zM743 483v391h-4l-252 -391h256zM1118 1665l86 -375h-37
l-180 205l-438 -205h-29l389 375h209z" />
    <glyph glyph-name="Adieresis" unicode="&#xc4;" horiz-adv-x="1194" 
d="M743 221v180h-309l-149 -227q-29 -46 -29 -74q0 -51 100 -65l-6 -35h-358l6 35q59 7 97.5 32t67 62t87.5 125l631 952h98v-999q0 -63 9.5 -100t40 -54t91.5 -18l-6 -35h-518l6 35q57 6 87.5 23.5t42 55t11.5 107.5zM743 483v391h-4l-252 -391h256zM1171 1616q56 0 95 -40
t39 -95t-39 -96.5t-95 -41.5q-54 0 -94.5 42t-40.5 96t40.5 94.5t94.5 40.5zM762 1616q55 0 94 -40t39 -95t-39 -96.5t-94 -41.5q-56 0 -95.5 41.5t-39.5 96.5q0 56 39.5 95.5t95.5 39.5z" />
    <glyph glyph-name="Agrave" unicode="&#xc0;" horiz-adv-x="1194" 
d="M743 221v180h-309l-149 -227q-29 -46 -29 -74q0 -51 100 -65l-6 -35h-358l6 35q59 7 97.5 32t67 62t87.5 125l631 952h98v-999q0 -63 9.5 -100t40 -54t91.5 -18l-6 -35h-518l6 35q57 6 87.5 23.5t42 55t11.5 107.5zM743 483v391h-4l-252 -391h256zM580 1653h358l127 -346
h-35z" />
    <glyph glyph-name="Aring" unicode="&#xc5;" horiz-adv-x="1194" 
d="M743 221v180h-309l-149 -227q-29 -46 -29 -74q0 -51 100 -65l-6 -35h-358l6 35q59 7 97.5 32t67 62t87.5 125l631 952h98v-999q0 -63 9.5 -100t40 -54t91.5 -18l-6 -35h-518l6 35q57 6 87.5 23.5t42 55t11.5 107.5zM743 483v391h-4l-252 -391h256zM969 1677q78 0 132 -55
t54 -133t-54.5 -133.5t-131.5 -55.5q-76 0 -131.5 55.5t-55.5 133.5t55 133t132 55zM969 1608q-48 0 -82.5 -35.5t-34.5 -83.5t35.5 -83.5t81.5 -35.5q47 0 81.5 35.5t34.5 83.5t-33.5 83.5t-82.5 35.5z" />
    <glyph glyph-name="Atilde" unicode="&#xc3;" horiz-adv-x="1194" 
d="M743 221v180h-309l-149 -227q-29 -46 -29 -74q0 -51 100 -65l-6 -35h-358l6 35q59 7 97.5 32t67 62t87.5 125l631 952h98v-999q0 -63 9.5 -100t40 -54t91.5 -18l-6 -35h-518l6 35q57 6 87.5 23.5t42 55t11.5 107.5zM743 483v391h-4l-252 -391h256zM1282 1614
q0 -109 -69.5 -187.5t-161.5 -78.5q-40 0 -82 12t-92 33.5t-83 33t-67 11.5q-85 0 -111 -84h-26q0 72 30.5 131.5t83 96t113.5 36.5q38 0 83.5 -13t84.5 -30t83.5 -33t70.5 -16q89 0 116 88h27z" />
    <glyph glyph-name="Eacute" unicode="&#xc9;" horiz-adv-x="1130" 
d="M961 745l-62 -292h-35q-6 63 -43 90.5t-110 27.5h-174l-72 -342q-12 -64 -12 -84q0 -44 32 -60.5t119 -16.5h168q72 0 129 44t127 152h33l-105 -264h-911l8 35q81 15 118.5 56t57.5 138l160 760q6 25 6 43q0 46 -30.5 71.5t-96.5 37.5l6 35h816l-46 -211h-38
q-9 85 -32.5 113t-92.5 28h-232l-98 -467h160q92 0 139 23.5t76 82.5h35zM1174 1653l-451 -346h-35l127 346h359z" />
    <glyph glyph-name="Ecircumflex" unicode="&#xca;" horiz-adv-x="1130" 
d="M961 745l-62 -292h-35q-6 63 -43 90.5t-110 27.5h-174l-72 -342q-12 -64 -12 -84q0 -44 32 -60.5t119 -16.5h168q72 0 129 44t127 152h33l-105 -264h-911l8 35q81 15 118.5 56t57.5 138l160 760q6 25 6 43q0 46 -30.5 71.5t-96.5 37.5l6 35h816l-46 -211h-38
q-9 85 -32.5 113t-92.5 28h-232l-98 -467h160q92 0 139 23.5t76 82.5h35zM1008 1665l86 -375h-37l-180 205l-439 -205h-28l389 375h209z" />
    <glyph glyph-name="Edieresis" unicode="&#xcb;" horiz-adv-x="1130" 
d="M961 745l-62 -292h-35q-6 63 -43 90.5t-110 27.5h-174l-72 -342q-12 -64 -12 -84q0 -44 32 -60.5t119 -16.5h168q72 0 129 44t127 152h33l-105 -264h-911l8 35q81 15 118.5 56t57.5 138l160 760q6 25 6 43q0 46 -30.5 71.5t-96.5 37.5l6 35h816l-46 -211h-38
q-9 85 -32.5 113t-92.5 28h-232l-98 -467h160q92 0 139 23.5t76 82.5h35zM1061 1616q55 0 94 -40t39 -95t-39 -96.5t-94 -41.5q-56 0 -95.5 41.5t-39.5 96.5q0 56 39.5 95.5t95.5 39.5zM651 1616q55 0 94 -40t39 -95t-39 -96.5t-94 -41.5q-54 0 -94.5 42t-40.5 96t40.5 94.5
t94.5 40.5z" />
    <glyph glyph-name="Egrave" unicode="&#xc8;" horiz-adv-x="1130" 
d="M961 745l-62 -292h-35q-6 63 -43 90.5t-110 27.5h-174l-72 -342q-12 -64 -12 -84q0 -44 32 -60.5t119 -16.5h168q72 0 129 44t127 152h33l-105 -264h-911l8 35q81 15 118.5 56t57.5 138l160 760q6 25 6 43q0 46 -30.5 71.5t-96.5 37.5l6 35h816l-46 -211h-38
q-9 85 -32.5 113t-92.5 28h-232l-98 -467h160q92 0 139 23.5t76 82.5h35zM469 1653h358l127 -346h-34z" />
    <glyph glyph-name="Iacute" unicode="&#xcd;" horiz-adv-x="793" 
d="M631 946l-162 -772q-4 -24 -4 -33q0 -97 135 -106l-8 -35h-547l8 35q97 22 134 63t55 125l153 723q8 39 8 74q0 54 -29 81t-98 40l5 35h524l-4 -35q-61 -16 -91 -35t-47.5 -55t-31.5 -105zM981 1653l-451 -346h-34l127 346h358z" />
    <glyph glyph-name="Icircumflex" unicode="&#xce;" horiz-adv-x="793" 
d="M631 946l-162 -772q-4 -24 -4 -33q0 -97 135 -106l-8 -35h-547l8 35q97 22 134 63t55 125l153 723q8 39 8 74q0 54 -29 81t-98 40l5 35h524l-4 -35q-61 -16 -91 -35t-47.5 -55t-31.5 -105zM815 1665l86 -375h-37l-180 205l-438 -205h-29l389 375h209z" />
    <glyph glyph-name="Idieresis" unicode="&#xcf;" horiz-adv-x="793" 
d="M631 946l-162 -772q-4 -24 -4 -33q0 -97 135 -106l-8 -35h-547l8 35q97 22 134 63t55 125l153 723q8 39 8 74q0 54 -29 81t-98 40l5 35h524l-4 -35q-61 -16 -91 -35t-47.5 -55t-31.5 -105zM868 1616q55 0 94 -40t39 -95t-39 -96.5t-94 -41.5q-54 0 -94.5 42t-40.5 96
t40.5 94.5t94.5 40.5zM459 1616q55 0 94 -40t39 -95t-39 -96.5t-94 -41.5q-56 0 -95.5 41.5t-39.5 96.5q0 56 39.5 95.5t95.5 39.5z" />
    <glyph glyph-name="Igrave" unicode="&#xcc;" horiz-adv-x="793" 
d="M631 946l-162 -772q-4 -24 -4 -33q0 -97 135 -106l-8 -35h-547l8 35q97 22 134 63t55 125l153 723q8 39 8 74q0 54 -29 81t-98 40l5 35h524l-4 -35q-61 -16 -91 -35t-47.5 -55t-31.5 -105zM276 1653h359l127 -346h-35z" />
    <glyph glyph-name="Ntilde" unicode="&#xd1;" horiz-adv-x="1409" 
d="M1346 942l-183 -960h-53l-614 940l-127 -693q-7 -38 -7 -63q0 -57 31.5 -88.5t104.5 -42.5l-6 -35h-371l6 35q74 12 110 54t56 140l164 777q-58 81 -100 104.5t-140 30.5l6 35h393l547 -834l111 608q8 54 8 72q0 119 -121 119l6 35h357l-6 -35q-70 -11 -113 -60.5
t-59 -138.5zM1311 1614q0 -73 -32 -133.5t-85.5 -96.5t-114.5 -36q-40 0 -82 12t-90 33t-82.5 33t-68.5 12q-85 0 -111 -84h-27q0 72 31 132t83 96t114 36q39 0 85 -13.5t86 -30.5t82 -32.5t68 -15.5q90 0 117 88h27z" />
    <glyph glyph-name="Oacute" unicode="&#xd3;" horiz-adv-x="1366" 
d="M1366 733q0 -144 -59.5 -282.5t-163.5 -247t-237.5 -171.5t-272.5 -63q-92 0 -176.5 27.5t-154.5 86t-111 148t-41 207.5q0 136 56 273.5t159 250t239 178.5t293 66q122 0 229.5 -53.5t173.5 -161t66 -258.5zM1122 770q0 108 -34.5 190.5t-97.5 128.5t-144 46
q-133 0 -237.5 -114t-160 -285.5t-55.5 -327.5q0 -109 35 -193t98.5 -130t145.5 -46q103 0 187 68t142.5 178t89.5 238.5t31 246.5zM1290 1653l-450 -346h-35l127 346h358z" />
    <glyph glyph-name="Ocircumflex" unicode="&#xd4;" horiz-adv-x="1366" 
d="M1366 733q0 -144 -59.5 -282.5t-163.5 -247t-237.5 -171.5t-272.5 -63q-92 0 -176.5 27.5t-154.5 86t-111 148t-41 207.5q0 136 56 273.5t159 250t239 178.5t293 66q122 0 229.5 -53.5t173.5 -161t66 -258.5zM1122 770q0 108 -34.5 190.5t-97.5 128.5t-144 46
q-133 0 -237.5 -114t-160 -285.5t-55.5 -327.5q0 -109 35 -193t98.5 -130t145.5 -46q103 0 187 68t142.5 178t89.5 238.5t31 246.5zM1124 1665l86 -375h-36l-181 205l-438 -205h-29l389 375h209z" />
    <glyph glyph-name="Odieresis" unicode="&#xd6;" horiz-adv-x="1366" 
d="M1366 733q0 -144 -59.5 -282.5t-163.5 -247t-237.5 -171.5t-272.5 -63q-92 0 -176.5 27.5t-154.5 86t-111 148t-41 207.5q0 136 56 273.5t159 250t239 178.5t293 66q122 0 229.5 -53.5t173.5 -161t66 -258.5zM1122 770q0 108 -34.5 190.5t-97.5 128.5t-144 46
q-133 0 -237.5 -114t-160 -285.5t-55.5 -327.5q0 -109 35 -193t98.5 -130t145.5 -46q103 0 187 68t142.5 178t89.5 238.5t31 246.5zM1178 1616q55 0 94 -40t39 -95t-39 -96.5t-94 -41.5t-95.5 42t-40.5 96t40.5 94.5t95.5 40.5zM768 1616q55 0 94 -40t39 -95t-39 -96.5
t-94 -41.5q-56 0 -95.5 41.5t-39.5 96.5q0 56 39.5 95.5t95.5 39.5z" />
    <glyph glyph-name="Ograve" unicode="&#xd2;" horiz-adv-x="1366" 
d="M1366 733q0 -144 -59.5 -282.5t-163.5 -247t-237.5 -171.5t-272.5 -63q-92 0 -176.5 27.5t-154.5 86t-111 148t-41 207.5q0 136 56 273.5t159 250t239 178.5t293 66q122 0 229.5 -53.5t173.5 -161t66 -258.5zM1122 770q0 108 -34.5 190.5t-97.5 128.5t-144 46
q-133 0 -237.5 -114t-160 -285.5t-55.5 -327.5q0 -109 35 -193t98.5 -130t145.5 -46q103 0 187 68t142.5 178t89.5 238.5t31 246.5zM586 1653h358l127 -346h-35z" />
    <glyph glyph-name="Otilde" unicode="&#xd5;" horiz-adv-x="1366" 
d="M1366 733q0 -144 -59.5 -282.5t-163.5 -247t-237.5 -171.5t-272.5 -63q-92 0 -176.5 27.5t-154.5 86t-111 148t-41 207.5q0 136 56 273.5t159 250t239 178.5t293 66q122 0 229.5 -53.5t173.5 -161t66 -258.5zM1122 770q0 108 -34.5 190.5t-97.5 128.5t-144 46
q-133 0 -237.5 -114t-160 -285.5t-55.5 -327.5q0 -109 35 -193t98.5 -130t145.5 -46q103 0 187 68t142.5 178t89.5 238.5t31 246.5zM1288 1614q0 -109 -69.5 -187.5t-161.5 -78.5q-40 0 -82 12t-92 33.5t-83 33t-67 11.5q-86 0 -110 -84h-27q0 72 30.5 131.5t83 96
t113.5 36.5q38 0 83.5 -13t84.5 -30t83.5 -33t70.5 -16q88 0 117 88h26z" />
    <glyph glyph-name="Scaron" unicode="&#x160;" horiz-adv-x="897" 
d="M887 1206l-51 -288h-41q-2 70 -23 118.5t-60.5 73.5t-93.5 25q-78 0 -133 -59t-55 -144q0 -65 41.5 -125.5t138 -171.5t146 -193.5t49.5 -175.5q0 -88 -47 -156t-134.5 -104.5t-199.5 -36.5q-85 0 -170 17q-24 3 -43 6t-36.5 5.5t-24.5 2.5q-40 0 -60 -31h-33l60 289h35
q17 -106 75 -162.5t150 -56.5q83 0 137.5 48t54.5 124q0 74 -41.5 136t-131 164t-134.5 177.5t-45 165.5q0 96 49.5 177t133.5 128t186 47q34 0 125 -14q78 -16 82 -16q39 0 61 30h33zM569 1290l-86 375h37l180 -205l439 205h28l-389 -375h-209z" />
    <glyph glyph-name="Uacute" unicode="&#xda;" horiz-adv-x="1579" 
d="M1436 940l-101 -475q-28 -135 -105 -248.5t-199.5 -180.5t-274.5 -67q-154 0 -259.5 62t-156.5 160t-51 198q0 91 22 201l84 383q6 24 6 47q0 109 -143 121l6 35h553l-6 -35q-97 -21 -131.5 -58t-56.5 -143l-109 -508q-18 -79 -18 -151q0 -107 71 -174.5t183 -67.5
q121 0 209.5 88.5t123.5 255.5l125 592q9 50 9 57q0 45 -33.5 70t-118.5 39l6 35h584l-6 -35q-75 -14 -114.5 -34t-61.5 -58t-37 -109zM1397 1653l-451 -346h-35l127 346h359z" />
    <glyph glyph-name="Ucircumflex" unicode="&#xdb;" horiz-adv-x="1579" 
d="M1436 940l-101 -475q-28 -135 -105 -248.5t-199.5 -180.5t-274.5 -67q-154 0 -259.5 62t-156.5 160t-51 198q0 91 22 201l84 383q6 24 6 47q0 109 -143 121l6 35h553l-6 -35q-97 -21 -131.5 -58t-56.5 -143l-109 -508q-18 -79 -18 -151q0 -107 71 -174.5t183 -67.5
q121 0 209.5 88.5t123.5 255.5l125 592q9 50 9 57q0 45 -33.5 70t-118.5 39l6 35h584l-6 -35q-75 -14 -114.5 -34t-61.5 -58t-37 -109zM1231 1665l86 -375h-37l-180 205l-438 -205h-29l389 375h209z" />
    <glyph glyph-name="Udieresis" unicode="&#xdc;" horiz-adv-x="1579" 
d="M1436 940l-101 -475q-28 -135 -105 -248.5t-199.5 -180.5t-274.5 -67q-154 0 -259.5 62t-156.5 160t-51 198q0 91 22 201l84 383q6 24 6 47q0 109 -143 121l6 35h553l-6 -35q-97 -21 -131.5 -58t-56.5 -143l-109 -508q-18 -79 -18 -151q0 -107 71 -174.5t183 -67.5
q121 0 209.5 88.5t123.5 255.5l125 592q9 50 9 57q0 45 -33.5 70t-118.5 39l6 35h584l-6 -35q-75 -14 -114.5 -34t-61.5 -58t-37 -109zM1284 1616q55 0 94 -40t39 -95t-39 -96.5t-94 -41.5q-56 0 -95.5 41.5t-39.5 96.5q0 56 39.5 95.5t95.5 39.5zM874 1616q56 0 95 -40
t39 -95t-39 -96.5t-95 -41.5q-54 0 -94.5 42t-40.5 96t40.5 94.5t94.5 40.5z" />
    <glyph glyph-name="Ugrave" unicode="&#xd9;" horiz-adv-x="1579" 
d="M1436 940l-101 -475q-28 -135 -105 -248.5t-199.5 -180.5t-274.5 -67q-154 0 -259.5 62t-156.5 160t-51 198q0 91 22 201l84 383q6 24 6 47q0 109 -143 121l6 35h553l-6 -35q-97 -21 -131.5 -58t-56.5 -143l-109 -508q-18 -79 -18 -151q0 -107 71 -174.5t183 -67.5
q121 0 209.5 88.5t123.5 255.5l125 592q9 50 9 57q0 45 -33.5 70t-118.5 39l6 35h584l-6 -35q-75 -14 -114.5 -34t-61.5 -58t-37 -109zM692 1653h359l127 -346h-35z" />
    <glyph glyph-name="Yacute" unicode="&#xdd;" horiz-adv-x="1194" 
d="M811 625l-88 -416q-8 -46 -8 -64q0 -50 32 -77t105 -33l-8 -35h-580l8 35q109 17 153 55t64 133l78 371l-153 334q-46 102 -89.5 149t-111.5 64l6 35h504l-6 -35q-84 -3 -84 -82q0 -57 49 -168l94 -203l211 266q57 73 57 117q0 59 -98 70l6 35h369l-6 -35
q-114 -29 -242 -187zM1204 1653l-450 -346h-35l127 346h358z" />
    <glyph glyph-name="Ydieresis" unicode="&#x178;" horiz-adv-x="1194" 
d="M811 625l-88 -416q-8 -46 -8 -64q0 -50 32 -77t105 -33l-8 -35h-580l8 35q109 17 153 55t64 133l78 371l-153 334q-46 102 -89.5 149t-111.5 64l6 35h504l-6 -35q-84 -3 -84 -82q0 -57 49 -168l94 -203l211 266q57 73 57 117q0 59 -98 70l6 35h369l-6 -35
q-114 -29 -242 -187zM1092 1616q55 0 94 -40t39 -95t-39 -96.5t-94 -41.5t-95.5 42t-40.5 96t40.5 94.5t95.5 40.5zM682 1616q55 0 94 -40t39 -95t-39 -96.5t-94 -41.5q-56 0 -95.5 41.5t-39.5 96.5q0 56 39.5 95.5t95.5 39.5z" />
    <glyph glyph-name="Zcaron" unicode="&#x17d;" horiz-adv-x="1217" 
d="M1104 262l-55 -262h-973l8 35l860 1061h-371q-55 0 -98 -18.5t-75.5 -61t-59.5 -109.5h-35l55 256h908l-6 -26l-861 -1069h428q163 0 240 194h35zM729 1278l-86 371h37l180 -203l438 203h29l-389 -371h-209z" />
    <glyph glyph-name="aacute" unicode="&#xe1;" horiz-adv-x="1024" 
d="M928 762l-105 -553q-8 -50 -8 -64q0 -51 27.5 -73t89.5 -25l-6 -29l-344 -47l30 148l-4 4q-131 -154 -291 -154q-101 0 -170 71.5t-69 178.5q0 92 42.5 186t125.5 170q121 111 261 149t316 38h105zM633 223l96 457h-100q-99 0 -168 -46.5t-115 -127.5
q-35 -62 -53.5 -133.5t-18.5 -118.5q0 -70 43.5 -122t104.5 -52q51 0 98 32.5t113 110.5zM1042 1237l-450 -346h-35l127 346h358z" />
    <glyph glyph-name="acircumflex" unicode="&#xe2;" horiz-adv-x="1024" 
d="M928 762l-105 -553q-8 -50 -8 -64q0 -51 27.5 -73t89.5 -25l-6 -29l-344 -47l30 148l-4 4q-131 -154 -291 -154q-101 0 -170 71.5t-69 178.5q0 92 42.5 186t125.5 170q121 111 261 149t316 38h105zM633 223l96 457h-100q-99 0 -168 -46.5t-115 -127.5
q-35 -62 -53.5 -133.5t-18.5 -118.5q0 -70 43.5 -122t104.5 -52q51 0 98 32.5t113 110.5zM877 1249l86 -375h-37l-181 205l-438 -205h-28l389 375h209z" />
    <glyph glyph-name="adieresis" unicode="&#xe4;" horiz-adv-x="1024" 
d="M928 762l-105 -553q-8 -50 -8 -64q0 -51 27.5 -73t89.5 -25l-6 -29l-344 -47l30 148l-4 4q-131 -154 -291 -154q-101 0 -170 71.5t-69 178.5q0 92 42.5 186t125.5 170q121 111 261 149t316 38h105zM633 223l96 457h-100q-99 0 -168 -46.5t-115 -127.5
q-35 -62 -53.5 -133.5t-18.5 -118.5q0 -70 43.5 -122t104.5 -52q51 0 98 32.5t113 110.5zM930 1200q55 0 94 -39t39 -96q0 -55 -39 -96t-94 -41q-56 0 -95.5 40.5t-39.5 96.5q0 58 39.5 96.5t95.5 38.5zM520 1200q55 0 94 -39t39 -96q0 -55 -39 -96t-94 -41
q-56 0 -95.5 40.5t-39.5 96.5q0 58 39.5 96.5t95.5 38.5z" />
    <glyph glyph-name="agrave" unicode="&#xe0;" horiz-adv-x="1024" 
d="M928 762l-105 -553q-8 -50 -8 -64q0 -51 27.5 -73t89.5 -25l-6 -29l-344 -47l30 148l-4 4q-131 -154 -291 -154q-101 0 -170 71.5t-69 178.5q0 92 42.5 186t125.5 170q121 111 261 149t316 38h105zM633 223l96 457h-100q-99 0 -168 -46.5t-115 -127.5
q-35 -62 -53.5 -133.5t-18.5 -118.5q0 -70 43.5 -122t104.5 -52q51 0 98 32.5t113 110.5zM338 1237h358l127 -346h-35z" />
    <glyph glyph-name="aring" unicode="&#xe5;" horiz-adv-x="1024" 
d="M928 762l-105 -553q-8 -50 -8 -64q0 -51 27.5 -73t89.5 -25l-6 -29l-344 -47l30 148l-4 4q-131 -154 -291 -154q-101 0 -170 71.5t-69 178.5q0 92 42.5 186t125.5 170q121 111 261 149t316 38h105zM633 223l96 457h-100q-99 0 -168 -46.5t-115 -127.5
q-35 -62 -53.5 -133.5t-18.5 -118.5q0 -70 43.5 -122t104.5 -52q51 0 98 32.5t113 110.5zM727 1262q78 0 132 -55t54 -134q0 -77 -54.5 -132.5t-131.5 -55.5q-75 0 -130.5 55.5t-55.5 132.5q0 79 55 134t131 55zM727 1192q-49 0 -83 -35t-34 -84q0 -46 34.5 -82.5
t82.5 -36.5t82.5 35.5t34.5 83.5q0 51 -34 85t-83 34z" />
    <glyph glyph-name="atilde" unicode="&#xe3;" horiz-adv-x="1024" 
d="M928 762l-105 -553q-8 -50 -8 -64q0 -51 27.5 -73t89.5 -25l-6 -29l-344 -47l30 148l-4 4q-131 -154 -291 -154q-101 0 -170 71.5t-69 178.5q0 92 42.5 186t125.5 170q121 111 261 149t316 38h105zM633 223l96 457h-100q-99 0 -168 -46.5t-115 -127.5
q-35 -62 -53.5 -133.5t-18.5 -118.5q0 -70 43.5 -122t104.5 -52q51 0 98 32.5t113 110.5zM1040 1198q0 -72 -31.5 -133t-85 -97t-114.5 -36q-40 0 -82 12t-90 33t-82.5 33t-69.5 12q-86 0 -110 -84h-27q0 72 31 132t83 96t113 36q38 0 83.5 -13t84.5 -30t83.5 -33t70.5 -16
q88 0 117 88h26z" />
    <glyph glyph-name="eacute" unicode="&#xe9;" horiz-adv-x="831" 
d="M729 195l27 -23q-44 -62 -103.5 -108t-125.5 -70.5t-130 -24.5q-86 0 -156 38.5t-110.5 107t-40.5 151.5q0 130 73.5 244.5t197.5 183t260 68.5q76 0 125 -38t49 -95q0 -79 -80.5 -144.5t-200 -105t-227.5 -47.5q-4 -30 -4 -45q0 -60 29.5 -107.5t75 -73.5t97.5 -26
q123 0 244 115zM606 604q0 37 -21.5 59.5t-56.5 22.5q-52 0 -103 -41t-86.5 -114t-45.5 -154q86 7 159 43.5t113.5 86t40.5 97.5zM946 1237l-450 -346h-35l127 346h358z" />
    <glyph glyph-name="ecircumflex" unicode="&#xea;" horiz-adv-x="831" 
d="M729 195l27 -23q-44 -62 -103.5 -108t-125.5 -70.5t-130 -24.5q-86 0 -156 38.5t-110.5 107t-40.5 151.5q0 130 73.5 244.5t197.5 183t260 68.5q76 0 125 -38t49 -95q0 -79 -80.5 -144.5t-200 -105t-227.5 -47.5q-4 -30 -4 -45q0 -60 29.5 -107.5t75 -73.5t97.5 -26
q123 0 244 115zM606 604q0 37 -21.5 59.5t-56.5 22.5q-52 0 -103 -41t-86.5 -114t-45.5 -154q86 7 159 43.5t113.5 86t40.5 97.5zM780 1249l86 -375h-37l-180 205l-438 -205h-29l389 375h209z" />
    <glyph glyph-name="edieresis" unicode="&#xeb;" horiz-adv-x="831" 
d="M729 195l27 -23q-44 -62 -103.5 -108t-125.5 -70.5t-130 -24.5q-86 0 -156 38.5t-110.5 107t-40.5 151.5q0 130 73.5 244.5t197.5 183t260 68.5q76 0 125 -38t49 -95q0 -79 -80.5 -144.5t-200 -105t-227.5 -47.5q-4 -30 -4 -45q0 -60 29.5 -107.5t75 -73.5t97.5 -26
q123 0 244 115zM606 604q0 37 -21.5 59.5t-56.5 22.5q-52 0 -103 -41t-86.5 -114t-45.5 -154q86 7 159 43.5t113.5 86t40.5 97.5zM834 1200q55 0 94 -39t39 -96q0 -55 -39 -96t-94 -41t-95.5 41.5t-40.5 95.5q0 56 40.5 95.5t95.5 39.5zM424 1200q55 0 94 -39t39 -96
q0 -55 -39 -96t-94 -41q-56 0 -95.5 40.5t-39.5 96.5q0 58 39.5 96.5t95.5 38.5z" />
    <glyph glyph-name="egrave" unicode="&#xe8;" horiz-adv-x="831" 
d="M729 195l27 -23q-44 -62 -103.5 -108t-125.5 -70.5t-130 -24.5q-86 0 -156 38.5t-110.5 107t-40.5 151.5q0 130 73.5 244.5t197.5 183t260 68.5q76 0 125 -38t49 -95q0 -79 -80.5 -144.5t-200 -105t-227.5 -47.5q-4 -30 -4 -45q0 -60 29.5 -107.5t75 -73.5t97.5 -26
q123 0 244 115zM606 604q0 37 -21.5 59.5t-56.5 22.5q-52 0 -103 -41t-86.5 -114t-45.5 -154q86 7 159 43.5t113.5 86t40.5 97.5zM242 1237h358l127 -346h-35z" />
    <glyph glyph-name="iacute" unicode="&#xed;" horiz-adv-x="629" 
d="M483 762l-121 -580q-6 -30 -6 -51q0 -45 26 -66.5t85 -29.5l-6 -35h-447l9 35q70 12 102 42t45 97l70 340q8 39 8 74q-2 49 -30 69t-99 21l8 35l334 49h22zM817 1237l-450 -346h-35l127 346h358z" />
    <glyph glyph-name="icircumflex" unicode="&#xee;" horiz-adv-x="629" 
d="M483 762l-121 -580q-6 -30 -6 -51q0 -45 26 -66.5t85 -29.5l-6 -35h-447l9 35q70 12 102 42t45 97l70 340q8 39 8 74q-2 49 -30 69t-99 21l8 35l334 49h22zM651 1249l86 -375h-37l-180 205l-438 -205h-29l389 375h209z" />
    <glyph glyph-name="idieresis" unicode="&#xef;" horiz-adv-x="629" 
d="M483 762l-121 -580q-6 -30 -6 -51q0 -45 26 -66.5t85 -29.5l-6 -35h-447l9 35q70 12 102 42t45 97l70 340q8 39 8 74q-2 49 -30 69t-99 21l8 35l334 49h22zM705 1200q55 0 94 -39t39 -96q0 -55 -39 -96t-94 -41t-95.5 41.5t-40.5 95.5q0 56 40.5 95.5t95.5 39.5z
M295 1200q55 0 94 -39t39 -96q0 -55 -39 -96t-94 -41q-56 0 -95.5 40.5t-39.5 96.5q0 58 39.5 96.5t95.5 38.5z" />
    <glyph glyph-name="igrave" unicode="&#xec;" horiz-adv-x="629" 
d="M483 762l-121 -580q-6 -30 -6 -51q0 -45 26 -66.5t85 -29.5l-6 -35h-447l9 35q70 12 102 42t45 97l70 340q8 39 8 74q-2 49 -30 69t-99 21l8 35l334 49h22zM113 1237h358l127 -346h-35z" />
    <glyph glyph-name="ntilde" unicode="&#xf1;" horiz-adv-x="1044" 
d="M154 207l65 315q8 36 8 68q-2 47 -30.5 66t-102.5 20l8 35l338 51h21l-29 -131l4 -4q119 135 262 135q61 0 112.5 -26.5t82.5 -75t31 -111.5q0 -28 -6 -60l-62 -315q-4 -24 -4 -39q0 -84 80 -100l-6 -35h-385l6 35q59 13 83.5 52.5t41.5 119.5l49 235q10 48 10 80
q0 127 -123 127q-103 0 -198 -123l-74 -360q-4 -24 -4 -35q0 -40 23 -63t73 -33l-6 -35h-402l7 35q65 16 87.5 53.5t39.5 118.5zM1051 1198q0 -73 -32 -133.5t-85.5 -96.5t-114.5 -36q-40 0 -82 12t-90 33t-82.5 33t-68.5 12q-87 0 -111 -84h-27q0 72 31 132t83 96t114 36
q39 0 85 -13.5t86 -30.5t82 -32.5t68 -15.5q89 0 117 88h27z" />
    <glyph glyph-name="oacute" unicode="&#xf3;" horiz-adv-x="874" 
d="M51 248q0 113 67 233.5t187.5 200.5t269.5 80q70 0 133 -36.5t99.5 -99.5t36.5 -134q0 -92 -42.5 -187.5t-115 -171t-163.5 -120t-181 -44.5q-127 0 -209 79t-82 200zM248 221q0 -80 35.5 -133t91.5 -53q90 0 152 79t91 190.5t29 213.5q0 81 -36 128.5t-97 47.5
q-120 0 -193 -152.5t-73 -320.5zM967 1237l-451 -346h-35l127 346h359z" />
    <glyph glyph-name="ocircumflex" unicode="&#xf4;" horiz-adv-x="874" 
d="M51 248q0 113 67 233.5t187.5 200.5t269.5 80q70 0 133 -36.5t99.5 -99.5t36.5 -134q0 -92 -42.5 -187.5t-115 -171t-163.5 -120t-181 -44.5q-127 0 -209 79t-82 200zM248 221q0 -80 35.5 -133t91.5 -53q90 0 152 79t91 190.5t29 213.5q0 81 -36 128.5t-97 47.5
q-120 0 -193 -152.5t-73 -320.5zM801 1249l86 -375h-37l-180 205l-439 -205h-28l389 375h209z" />
    <glyph glyph-name="odieresis" unicode="&#xf6;" horiz-adv-x="874" 
d="M51 248q0 113 67 233.5t187.5 200.5t269.5 80q70 0 133 -36.5t99.5 -99.5t36.5 -134q0 -92 -42.5 -187.5t-115 -171t-163.5 -120t-181 -44.5q-127 0 -209 79t-82 200zM248 221q0 -80 35.5 -133t91.5 -53q90 0 152 79t91 190.5t29 213.5q0 81 -36 128.5t-97 47.5
q-120 0 -193 -152.5t-73 -320.5zM854 1200q55 0 94 -39t39 -96q0 -55 -39 -96t-94 -41q-56 0 -95.5 40.5t-39.5 96.5q0 58 39.5 96.5t95.5 38.5zM444 1200q56 0 95 -39t39 -96q0 -55 -39 -96t-95 -41q-54 0 -94.5 41.5t-40.5 95.5q0 56 40.5 95.5t94.5 39.5z" />
    <glyph glyph-name="ograve" unicode="&#xf2;" horiz-adv-x="874" 
d="M51 248q0 113 67 233.5t187.5 200.5t269.5 80q70 0 133 -36.5t99.5 -99.5t36.5 -134q0 -92 -42.5 -187.5t-115 -171t-163.5 -120t-181 -44.5q-127 0 -209 79t-82 200zM248 221q0 -80 35.5 -133t91.5 -53q90 0 152 79t91 190.5t29 213.5q0 81 -36 128.5t-97 47.5
q-120 0 -193 -152.5t-73 -320.5zM262 1237h359l127 -346h-35z" />
    <glyph glyph-name="otilde" unicode="&#xf5;" horiz-adv-x="874" 
d="M51 248q0 113 67 233.5t187.5 200.5t269.5 80q70 0 133 -36.5t99.5 -99.5t36.5 -134q0 -92 -42.5 -187.5t-115 -171t-163.5 -120t-181 -44.5q-127 0 -209 79t-82 200zM248 221q0 -80 35.5 -133t91.5 -53q90 0 152 79t91 190.5t29 213.5q0 81 -36 128.5t-97 47.5
q-120 0 -193 -152.5t-73 -320.5zM965 1198q0 -73 -32 -133.5t-85.5 -96.5t-114.5 -36q-40 0 -82 12t-90 33t-82.5 33t-68.5 12q-87 0 -111 -84h-27q0 72 31 132t83 96t114 36q37 0 82.5 -13t84.5 -30t83.5 -33t70.5 -16q89 0 117 88h27z" />
    <glyph glyph-name="scaron" unicode="&#x161;" horiz-adv-x="705" 
d="M682 764l-49 -236h-31q-11 86 -59 131.5t-115 45.5q-46 0 -78.5 -22.5t-32.5 -57.5q0 -41 92.5 -139.5t139.5 -161.5t47 -148q0 -91 -74 -149t-190 -58q-64 0 -119 15q-66 12 -82 12q-42 0 -57 -25h-33l55 260h33q6 -97 50.5 -151.5t117.5 -54.5q48 0 83.5 28.5
t35.5 69.5q0 48 -33 94t-95 109t-96 112.5t-34 102.5q0 94 77.5 157.5t196.5 63.5q53 0 96 -10q7 -1 26 -5t27.5 -5t14.5 -1q32 0 55 23h31zM395 874l-86 375h37l180 -205l439 205h28l-389 -375h-209z" />
    <glyph glyph-name="uacute" unicode="&#xfa;" horiz-adv-x="1044" 
d="M168 287l51 245q6 31 6 52q0 93 -125 96l6 33l334 49h19l-115 -539q-4 -20 -4 -30q0 -47 31.5 -80t83.5 -33q44 0 101.5 40.5t113.5 108.5l63 303q6 34 6 60q0 47 -26 67.5t-92 20.5l6 33l327 49h19l-119 -563q-6 -31 -6 -54q0 -46 28.5 -68.5t94.5 -25.5l-8 -35
l-332 -45h-17l31 142l-4 4q-56 -68 -130.5 -108t-145.5 -40q-86 0 -146.5 58t-60.5 168q0 51 10 92zM1053 1237l-451 -346h-35l127 346h359z" />
    <glyph glyph-name="ucircumflex" unicode="&#xfb;" horiz-adv-x="1044" 
d="M168 287l51 245q6 31 6 52q0 93 -125 96l6 33l334 49h19l-115 -539q-4 -20 -4 -30q0 -47 31.5 -80t83.5 -33q44 0 101.5 40.5t113.5 108.5l63 303q6 34 6 60q0 47 -26 67.5t-92 20.5l6 33l327 49h19l-119 -563q-6 -31 -6 -54q0 -46 28.5 -68.5t94.5 -25.5l-8 -35
l-332 -45h-17l31 142l-4 4q-56 -68 -130.5 -108t-145.5 -40q-86 0 -146.5 58t-60.5 168q0 51 10 92zM887 1249l86 -375h-37l-180 205l-439 -205h-28l389 375h209z" />
    <glyph glyph-name="udieresis" unicode="&#xfc;" horiz-adv-x="1044" 
d="M168 287l51 245q6 31 6 52q0 93 -125 96l6 33l334 49h19l-115 -539q-4 -20 -4 -30q0 -47 31.5 -80t83.5 -33q44 0 101.5 40.5t113.5 108.5l63 303q6 34 6 60q0 47 -26 67.5t-92 20.5l6 33l327 49h19l-119 -563q-6 -31 -6 -54q0 -46 28.5 -68.5t94.5 -25.5l-8 -35
l-332 -45h-17l31 142l-4 4q-56 -68 -130.5 -108t-145.5 -40q-86 0 -146.5 58t-60.5 168q0 51 10 92zM940 1200q55 0 94 -39t39 -96q0 -55 -39 -96t-94 -41q-56 0 -95.5 40.5t-39.5 96.5q0 58 39.5 96.5t95.5 38.5zM530 1200q56 0 95 -39t39 -96q0 -55 -39 -96t-95 -41
q-54 0 -94.5 41.5t-40.5 95.5q0 56 40.5 95.5t94.5 39.5z" />
    <glyph glyph-name="ugrave" unicode="&#xf9;" horiz-adv-x="1044" 
d="M168 287l51 245q6 31 6 52q0 93 -125 96l6 33l334 49h19l-115 -539q-4 -20 -4 -30q0 -47 31.5 -80t83.5 -33q44 0 101.5 40.5t113.5 108.5l63 303q6 34 6 60q0 47 -26 67.5t-92 20.5l6 33l327 49h19l-119 -563q-6 -31 -6 -54q0 -46 28.5 -68.5t94.5 -25.5l-8 -35
l-332 -45h-17l31 142l-4 4q-56 -68 -130.5 -108t-145.5 -40q-86 0 -146.5 58t-60.5 168q0 51 10 92zM348 1237h359l127 -346h-35z" />
    <glyph glyph-name="yacute" unicode="&#xfd;" horiz-adv-x="831" 
d="M731 514l-434 -731q-56 -95 -150 -188t-194 -132q-52 -19 -102.5 -24.5t-129.5 -5.5l48 143q49 2 101 8t105 22t103 46q76 45 117 95.5t120 176.5l-100 606q-25 156 -123 164l8 37h387l-8 -37q-90 -15 -90 -98q0 -31 6 -70l56 -368h4l227 391q33 53 33 78q0 32 -26 49.5
t-58 17.5l8 37h281l-9 -37q-45 -16 -85 -51t-95 -129zM946 1237l-450 -346h-35l127 346h358z" />
    <glyph glyph-name="ydieresis" unicode="&#xff;" horiz-adv-x="831" 
d="M731 514l-434 -731q-56 -95 -150 -188t-194 -132q-52 -19 -102.5 -24.5t-129.5 -5.5l48 143q49 2 101 8t105 22t103 46q76 45 117 95.5t120 176.5l-100 606q-25 156 -123 164l8 37h387l-8 -37q-90 -15 -90 -98q0 -31 6 -70l56 -368h4l227 391q33 53 33 78q0 32 -26 49.5
t-58 17.5l8 37h281l-9 -37q-45 -16 -85 -51t-95 -129zM834 1200q55 0 94 -39t39 -96q0 -55 -39 -96t-94 -41t-95.5 41.5t-40.5 95.5q0 56 40.5 95.5t95.5 39.5zM424 1200q55 0 94 -39t39 -96q0 -55 -39 -96t-94 -41q-56 0 -95.5 40.5t-39.5 96.5q0 58 39.5 96.5t95.5 38.5z
" />
    <glyph glyph-name="zcaron" unicode="&#x17e;" 
d="M49 53l576 617h-242q-63 0 -104 -28.5t-74 -96.5h-35l37 178h670v-53l-580 -617h240q92 0 144.5 35t80.5 107h35l-43 -195h-705v53zM512 866l-86 371h37l180 -203l438 203h29l-389 -371h-209z" />
    <glyph glyph-name="nonbreakingspace" unicode="&#xa0;" horiz-adv-x="1536" 
 />
    </font>
</defs>
</svg>
